<?xml version="1.0" encoding="UTF-8"?>
<svg width="75px" height="61px" viewBox="0 0 75 61" version="1.1" xmlns="http://www.w3.org/2000/svg" xmlns:xlink="http://www.w3.org/1999/xlink">
    <!-- Generator: Sketch 41.2 (35397) - http://www.bohemiancoding.com/sketch -->
    <title>Group 2</title>
    <desc>Created with Sketch.</desc>
    <defs></defs>
    <g id="Design" stroke="none" stroke-width="1" fill="none" fill-rule="evenodd">
        <g id="HOME" transform="translate(-966.000000, -660.000000)" fill="#FFFFFF">
            <g id="Group-3" transform="translate(758.000000, 508.000000)">
                <g id="Group-2" transform="translate(208.000000, 144.000000)">
                    <text id="0-.05-2-.09" font-family="CircularStd-Bold, Circular Std" font-size="30" font-weight="bold">
                        <tspan x="0" y="30">0 .05 </tspan>
                        <tspan x="0" y="68">2  .09</tspan>
                    </text>
                    <path d="M19.9503619,8.53489733 C19.9503619,8.53489733 15.9336219,11.3050363 16.0260114,12.246762 C16.1187392,13.1888253 18.0991893,13.9458526 18.9970249,13.3826405 C19.8948606,12.8194285 20.7923578,12.2562164 20.7923578,12.2562164 C20.7923578,12.2562164 20.9683376,18.8955682 21.6252162,20.7327606 C22.2824332,22.5706283 22.2269319,26.8551594 22.4113723,28.7386108 C22.5964896,30.6227375 23.254045,32.4599299 24.1515422,31.8967178 C25.0490395,31.3338434 26.4189749,30.7240346 26.2802215,29.3112773 C26.1414682,27.8985199 24.2259953,18.1013987 24.040878,16.2176097 C23.8557607,14.3338206 23.5782541,11.5083059 23.4855262,10.5665802 C23.3931368,9.62451684 23.2080195,7.74072779 21.7920586,7.87950487 C20.3760977,8.01794429 19.9503619,8.53489733 19.9503619,8.53489733" id="Fill-7" transform="translate(21.157218, 19.936119) rotate(8.000000) translate(-21.157218, -19.936119) "></path>
                    <path d="M24.2544252,66.1710966 C24.2544252,66.1710966 23.8231081,68.6745062 22.334892,68.6533129 C20.8473318,68.6322601 19.3595157,68.6108473 19.7985215,67.4283393 C20.2378553,66.2459016 22.8732741,59.1508451 23.7519416,56.7859697 C24.6303532,54.4207343 25.2080908,51.5232754 25.801606,51.2674003 C26.395377,51.0118852 18.0697241,51.9496641 17.9148868,51.0229611 C17.7607774,50.0961087 17.2977215,47.3157009 20.1273331,47.7523564 C22.9566168,48.1889415 29.3474312,47.0912858 29.5015405,48.0181381 C29.6563057,48.9451309 29.5134377,49.999416 28.4889334,52.758771 C27.4637732,55.5179854 24.242528,64.1898187 24.2544252,66.1710966" id="Fill-9"></path>
                    <path d="M18.8432113,55.931199 C18.8432113,55.931199 28.5219291,54.7846039 29.3374148,55.9662294 C30.1529006,57.1478548 29.5151105,58.3875691 28.1285218,58.0905997 C26.7419331,57.7936304 20.0023342,58.7747189 19.2273529,58.1382027" id="Path-5"></path>
                </g>
            </g>
        </g>
    </g>
</svg>