<?xml version="1.0" encoding="UTF-8"?>
<svg width="312px" height="215px" viewBox="0 0 312 215" version="1.1" xmlns="http://www.w3.org/2000/svg" xmlns:xlink="http://www.w3.org/1999/xlink">
    <!-- Generator: Sketch 41.2 (35397) - http://www.bohemiancoding.com/sketch -->
    <title>header-img</title>
    <desc>Created with Sketch.</desc>
    <defs></defs>
    <g id="Symbols" stroke="none" stroke-width="1" fill="none" fill-rule="evenodd">
        <g id="header" transform="translate(-489.000000, -124.000000)">
            <g id="header-img">
                <g transform="translate(479.000000, 122.000000)">
                    <g id="bg-blobs">
                        <path d="M117.715295,13.0364011 C81.6211062,6.0958786 61.5621997,49.7911542 62.5831651,69.1894961 C63.6041304,88.587838 61.5621997,105.944249 72.7928187,119.216799 C84.0234377,132.489349 99.3379182,139.636106 114.652399,139.636106 C129.966879,139.636106 155.491013,119.216799 157.532944,99.818457 C159.574875,80.4201151 137.113637,76.3362537 137.113637,58.9798425 C137.113637,41.6234313 144.260394,18.141228 117.715295,13.0364011" id="Page-1" fill="#FDCA3D" style="mix-blend-mode: multiply;" transform="translate(110.105095, 75.966425) rotate(-65.000000) translate(-110.105095, -75.966425) "></path>
                        <path d="M243.442339,57.954585 C207.34815,51.0140624 187.289244,94.7093381 188.310209,114.10768 C189.331174,133.506022 187.289244,150.862433 198.519863,164.134983 C209.750482,177.407532 225.064962,184.55429 240.379443,184.55429 C255.693923,184.55429 281.218057,164.134983 283.259988,144.736641 C285.301919,125.338299 262.840681,121.254438 262.840681,103.898026 C262.840681,86.5416151 269.987438,63.0594118 243.442339,57.954585" id="Page-1" fill="#FDCA3D" style="mix-blend-mode: multiply;" transform="translate(235.832139, 120.884609) rotate(94.000000) translate(-235.832139, -120.884609) "></path>
                        <path d="M159.65515,165.549953 C160.642712,184.313637 168.996141,181.358944 179.705674,193.15751 C180.06791,193.556581 197.531945,195.321357 198.009487,195.491068 C215.328583,201.646033 221.619078,226.173571 233.15271,232.288978 C244.686343,238.404385 252.562998,215.577255 254.604929,196.178913 C256.64686,176.780571 234.185622,172.69671 234.185622,155.340299 C234.185622,137.983888 241.332379,114.501684 214.78728,109.396858 C178.693091,102.456335 158.634185,146.151611 159.65515,165.549953 Z" id="Page-1" fill="#FDCA3D" style="mix-blend-mode: multiply;" transform="translate(207.177080, 170.978657) rotate(94.000000) translate(-207.177080, -170.978657) "></path>
                        <path d="M135.534115,81.5062637 C90.4575685,74.5657412 65.4068258,118.261017 66.6818674,137.659359 C67.956909,157.057701 65.4068258,174.414112 79.4322836,187.686661 C93.4577415,200.959211 112.583366,208.105969 131.70899,208.105969 C150.834614,208.105969 182.710655,187.686661 185.260738,168.28832 C187.810821,148.889978 159.759906,144.806116 159.759906,127.449705 C159.759906,110.093294 168.685197,86.6110905 135.534115,81.5062637" id="Page-1" fill="#FDCA3D" style="mix-blend-mode: multiply;" transform="translate(126.030050, 144.436288) rotate(141.000000) translate(-126.030050, -144.436288) "></path>
                        <path d="M159.154384,39.6351632 C159.154384,39.6351632 188.654067,46.4957794 204.110575,27.8294948 C219.567083,9.16321033 257.182962,44.2904663 238.738819,52.1587657 C220.294675,60.027065 193.013182,51.4279539 193.013182,64.7306596 C193.013182,78.0333653 245.753968,48.8298698 245.753968,69.5726899 C245.753968,90.3155101 225.302506,107.703679 213.878341,94.2045876 C202.454176,80.7054964 172.476406,79.7976157 172.476406,95.1929542 C172.476406,110.588293 120.788376,106.518927 137.278322,85.6247932 C153.768269,64.7306596 156.659321,72.8210999 151.450276,56.2281316 C146.24123,39.6351632 159.154384,39.6351632 159.154384,39.6351632 Z" id="Path-6" fill="#FDCA3D" style="mix-blend-mode: multiply;" transform="translate(189.892776, 63.464595) rotate(-30.000000) translate(-189.892776, -63.464595) "></path>
                        <path d="M88.3564753,106.455239 C46.2742353,124.445701 21.578876,104.040915 5.68925102,113.45023 C-10.2003739,122.859546 13.8539729,187.948054 51.1730685,150.699142 C88.4921641,113.45023 57.94815,177.504696 88.3564753,177.504696 C118.764801,177.504696 130.438715,88.4647775 88.3564753,106.455239 Z" id="Path-7" fill="#F7C53B" style="mix-blend-mode: multiply;" transform="translate(58.214463, 140.779795) scale(1, -1) rotate(-244.000000) translate(-58.214463, -140.779795) "></path>
                    </g>
                    <g id="accent-drops" transform="translate(58.000000, 2.000000)">
                        <g id="Page-1" transform="translate(110.000000, 111.000000) rotate(6.000000) translate(-110.000000, -111.000000) translate(8.000000, 30.000000)" fill="#333333">
                            <path d="M61.0245878,131.344338 C57.2110367,131.344338 57.2110367,106.609569 57.2110367,98.9983385 L57.2110367,70.4572615 C57.2110367,70.4572615 56.7614041,59.0411077 61.0245878,59.0411077 C68.6530776,59.0411077 68.6530776,93.2895692 68.6530776,110.414492 C68.6530776,127.538031 64.8395265,131.344338 61.0245878,131.344338 M82.0018939,116.121877 C82.0018939,112.316954 80.0951184,64.7498769 80.0951184,60.9435692 C80.0951184,57.1386462 76.2815673,36.2088 59.1178122,45.7224923 C41.9554449,55.2361846 43.1919347,75.6218769 43.8622204,85.6797231 C44.6199347,97.0709538 45.7689959,127.538031 45.7689959,129.441877 C45.7689959,131.344338 49.5825469,148.469262 66.746302,144.662954 C83.9086694,140.858031 82.0018939,119.928185 82.0018939,116.121877" id="Fill-1" style="mix-blend-mode: multiply;"></path>
                            <path d="M87.7226367,36.2088 C87.7226367,36.2088 91.5375755,76.1660308 91.5375755,89.4846462 C91.5375755,102.803262 87.7226367,129.441877 93.444351,129.441877 C99.1646776,129.441877 106.793167,127.538031 104.886392,116.121877 C102.979616,104.705723 102.979616,87.5821846 102.979616,87.5821846 C102.979616,87.5821846 110.606718,121.830646 118.235208,121.830646 C125.863698,121.830646 127.770473,118.025723 127.770473,114.219415 C127.770473,110.414492 112.514882,85.6797231 112.514882,81.8734154 C112.514882,78.0684923 127.770473,55.2361846 127.770473,49.5274154 C127.770473,43.8200308 122.048759,40.0137231 120.141984,43.8200308 C118.235208,47.6249538 102.979616,74.2621846 102.979616,74.2621846 C102.979616,74.2621846 102.979616,26.6951077 99.1646776,28.5975692 C95.3511265,30.5000308 87.7226367,36.2088 87.7226367,36.2088" id="Fill-3" style="mix-blend-mode: multiply;"></path>
                            <path d="M19.5817796,133.898538 C16.2803102,140.036538 13.159249,139.946538 13.2494531,136.832538 C13.3396571,133.718538 11.7590041,80.6891538 11.8505959,77.5751538 C11.8505959,77.5751538 15.1534531,71.4385385 18.1829224,74.6425385 C21.2137796,77.8465385 22.8846367,127.760538 19.5817796,133.898538 M25.937698,57.8139231 C17.2919837,53.5008462 0.000555102038,62.127 0.000555102038,62.127 C0.000555102038,62.127 4.32341224,148.391308 4.32341224,157.017462 C4.32341224,165.643615 12.9691265,161.330538 25.937698,148.391308 C38.9076571,135.452077 34.5848,62.127 25.937698,57.8139231" id="Fill-5" style="mix-blend-mode: multiply;"></path>
                            <path d="M138.953004,14.0279538 C138.953004,14.0279538 122.481739,25.3873385 122.860596,29.2490308 C123.240841,33.1121077 131.361984,36.2164154 135.043698,33.9068769 C138.725412,31.5973385 142.405739,29.2878 142.405739,29.2878 C142.405739,29.2878 143.127371,56.5134923 145.821004,64.0471846 C148.516024,71.5836462 148.288433,89.1530308 149.044759,96.8764154 C149.803861,104.602569 152.500269,112.136262 156.180596,109.826723 C159.860922,107.518569 165.478555,105.017954 164.909576,99.2247231 C164.340596,93.4314923 156.485902,53.2568769 155.7268,45.5321077 C154.967698,37.8073385 153.829739,26.2208769 153.449494,22.3591846 C153.070637,18.4961077 152.311535,10.7713385 146.505167,11.3404154 C140.6988,11.9081077 138.953004,14.0279538 138.953004,14.0279538" id="Fill-7" style="mix-blend-mode: multiply;"></path>
                            <path d="M199.176718,88.3448308 C199.176718,88.3448308 199.946922,100.122369 193.946269,101.472369 C187.948392,102.822369 181.949127,104.170985 182.530596,98.3791385 C183.113453,92.5872923 186.60782,57.8348308 187.773535,46.2511385 C188.937861,34.6660615 188.361943,20.9583692 190.490759,19.2206769 C192.620963,17.4843692 160.107249,29.8296 158.558514,25.7754462 C157.012555,21.7199077 152.371902,9.55467692 164.177535,8.78621538 C175.98178,8.01775385 200.561698,-3.17270769 202.107657,0.882830769 C203.656392,4.93836923 204.136555,9.86067692 202.779331,23.3759077 C201.419331,36.8911385 197.14782,79.3669846 199.176718,88.3448308" id="Fill-9" style="mix-blend-mode: multiply;"></path>
                        </g>
                        <path d="M236.815984,27.2679408 C236.815984,27.2679408 238.107437,0.104009052 252.161489,0.104009052 C266.215541,0.104009052 236.815984,27.2679408 236.815984,27.2679408 Z" id="Path-2" fill="#6FB4D3" style="mix-blend-mode: multiply;"></path>
                        <path d="M236.355346,39.9602488 C236.355346,39.9602488 259.589591,22.0698553 263.15294,31.828617 C266.716289,41.5873787 236.355346,39.9602488 236.355346,39.9602488 Z" id="Path-3" fill="#6FB4D3" style="mix-blend-mode: multiply;"></path>
                        <path d="M221.045241,25.1066908 C221.045241,25.1066908 210.822252,7.2014102 220.322846,4.78658478 C229.823439,2.37175937 221.045241,25.1066908 221.045241,25.1066908 Z" id="Path-4" fill="#6FB4D3" style="mix-blend-mode: multiply;" transform="translate(218.662541, 14.946638) rotate(10.000000) translate(-218.662541, -14.946638) "></path>
                        <path d="M180,85.6642317 C180,85.6642317 217.741359,71.0567395 222.199393,75.6255434 C226.657428,80.1943473 225.33447,86.438915 219.466392,86.438915 C213.598314,86.438915 187.500467,97.439418 183.750234,95.3045115 C180,93.1696051 180,85.6642317 180,85.6642317 Z" id="Path-5" fill="#333333" style="mix-blend-mode: multiply;"></path>
                    </g>
                    <g id="header-date" transform="translate(133.000000, 155.000000)">
                        <path d="M114.341798,16.3123738 C111.678697,16.440593 108.988909,16.7592404 108.988909,16.7592404 L109.37305,18.9662442 C109.744432,19.271271 111.485558,19.2048228 113.350937,19.0855642 C112.224808,22.116919 110.312581,27.2649591 109.944219,28.2563808 C109.505213,29.4388887 110.993029,29.4603015 112.48059,29.4813543 C113.968806,29.5025476 114.400123,26.999138 114.400123,26.999138 C114.392946,25.8040351 115.562142,22.1745876 116.716145,18.8768439 C117.41243,18.849881 117.971172,18.8537368 118.274219,18.9186412 C119.660808,19.2156106 120.298598,17.9758963 119.483112,16.7942708 C119.288462,16.5122257 118.588837,16.3628289 117.636395,16.2988253 C118.041973,15.1820494 118.397201,14.2258547 118.634631,13.5868124 C119.659135,10.8274575 119.802003,9.7731724 119.647238,8.84617959 C119.493129,7.91932725 113.102314,9.01698299 110.273031,8.58039781 C107.443419,8.1437424 107.906475,10.9241502 108.060584,11.8510025 C108.215422,12.7777056 116.541075,11.8399266 115.947304,12.0954417 C115.459911,12.3055656 114.983158,14.2970797 114.341798,16.3123738 Z M21.3335858,12.6425354 C21.3335858,12.6425354 16.9704077,14.8266934 16.9308351,15.7721124 C16.8915506,16.7179129 18.7473693,17.7431982 19.7148512,17.3104218 C20.6823331,16.8776455 21.6494799,16.444822 21.6494799,16.444822 C21.6494799,16.444822 20.899728,23.0440518 21.2945261,24.9547846 C21.6895654,26.8662332 21.0383127,31.1013433 20.9588324,32.9921342 C20.8799284,34.883688 21.2753968,36.794515 22.2425436,36.3616916 C23.2096434,35.9292025 24.6511157,35.5159865 24.7103305,34.0976673 C24.7695453,32.679348 24.2362094,22.7109894 24.3150664,20.8197699 C24.3939235,18.9285505 24.5123531,16.091912 24.5515906,15.1464459 C24.5912102,14.2006925 24.6700672,12.309473 23.2485723,12.2498358 C21.8271244,12.1898643 21.3335858,12.6425354 21.3335858,12.6425354 Z M0.944979001,25.4422081 C0.944979001,24.1822018 1.0649778,22.967214 1.304979,21.7972081 C1.5449802,20.6272023 1.9949757,19.5322132 2.654979,18.5122081 C3.2949822,17.5522033 4.1449737,16.7672112 5.204979,16.1572081 C6.2649843,15.5472051 7.5549714,15.2422081 9.074979,15.2422081 C10.5949866,15.2422081 11.8799738,15.5472051 12.929979,16.1572081 C13.9799843,16.7672112 14.8249758,17.5522033 15.464979,18.5122081 C16.1249823,19.5322132 16.5799778,20.6272023 16.829979,21.7972081 C17.0799803,22.967214 17.204979,24.1822018 17.204979,25.4422081 C17.204979,26.7022144 17.0799803,27.9172023 16.829979,29.0872081 C16.5799778,30.257214 16.1249823,31.352203 15.464979,32.3722081 C14.8249758,33.3322129 13.9799843,34.1172051 12.929979,34.7272081 C11.8799738,35.3372112 10.5949866,35.6422081 9.074979,35.6422081 C7.5549714,35.6422081 6.2649843,35.3372112 5.204979,34.7272081 C4.1449737,34.1172051 3.2949822,33.3322129 2.654979,32.3722081 C1.9949757,31.352203 1.5449802,30.257214 1.304979,29.0872081 C1.0649778,27.9172023 0.944979001,26.7022144 0.944979001,25.4422081 Z M5.084979,25.4422081 C5.084979,26.4622132 5.1649782,27.3972039 5.324979,28.2472081 C5.4849798,29.0972124 5.7549771,29.8122052 6.134979,30.3922081 C6.4349805,30.8722105 6.8249766,31.2572067 7.304979,31.5472081 C7.7849814,31.8372096 8.3749755,31.9822081 9.074979,31.9822081 C9.7949826,31.9822081 10.3849767,31.8372096 10.844979,31.5472081 C11.3049813,31.2572067 11.6849775,30.8722105 11.984979,30.3922081 C12.384981,29.8122052 12.6649782,29.0972124 12.824979,28.2472081 C12.9849798,27.3972039 13.064979,26.4622132 13.064979,25.4422081 C13.064979,24.422203 12.9849798,23.4872124 12.824979,22.6372081 C12.6649782,21.7872039 12.384981,21.072211 11.984979,20.4922081 C11.6849775,20.0122057 11.3049813,19.6272096 10.844979,19.3372081 C10.3849767,19.0472067 9.7949826,18.9022081 9.074979,18.9022081 C8.3749755,18.9022081 7.7849814,19.0472067 7.304979,19.3372081 C6.8249766,19.6272096 6.4349805,20.0122057 6.134979,20.4922081 C5.7549771,21.072211 5.4849798,21.7872039 5.324979,22.6372081 C5.1649782,23.4872124 5.084979,24.422203 5.084979,25.4422081 Z M27.8347355,31.6446441 C27.8347355,30.8846403 28.0997328,30.2396467 28.6297355,29.7096441 C29.1597381,29.1796414 29.8047317,28.9146441 30.5647355,28.9146441 C31.3247393,28.9146441 31.9747328,29.1796414 32.5147355,29.7096441 C33.0547382,30.2396467 33.3247355,30.8846403 33.3247355,31.6446441 C33.3247355,32.4046479 33.0547382,33.0496414 32.5147355,33.5796441 C31.9747328,34.1096467 31.3247393,34.3746441 30.5647355,34.3746441 C29.8047317,34.3746441 29.1597381,34.1096467 28.6297355,33.5796441 C28.0997328,33.0496414 27.8347355,32.4046479 27.8347355,31.6446441 Z M35.804979,25.4422081 C35.804979,24.1822018 35.9249778,22.967214 36.164979,21.7972081 C36.4049802,20.6272023 36.8549757,19.5322132 37.514979,18.5122081 C38.1549822,17.5522033 39.0049737,16.7672112 40.064979,16.1572081 C41.1249843,15.5472051 42.4149714,15.2422081 43.934979,15.2422081 C45.4549866,15.2422081 46.7399738,15.5472051 47.789979,16.1572081 C48.8399843,16.7672112 49.6849758,17.5522033 50.324979,18.5122081 C50.9849823,19.5322132 51.4399778,20.6272023 51.689979,21.7972081 C51.9399803,22.967214 52.064979,24.1822018 52.064979,25.4422081 C52.064979,26.7022144 51.9399803,27.9172023 51.689979,29.0872081 C51.4399778,30.257214 50.9849823,31.352203 50.324979,32.3722081 C49.6849758,33.3322129 48.8399843,34.1172051 47.789979,34.7272081 C46.7399738,35.3372112 45.4549866,35.6422081 43.934979,35.6422081 C42.4149714,35.6422081 41.1249843,35.3372112 40.064979,34.7272081 C39.0049737,34.1172051 38.1549822,33.3322129 37.514979,32.3722081 C36.8549757,31.352203 36.4049802,30.257214 36.164979,29.0872081 C35.9249778,27.9172023 35.804979,26.7022144 35.804979,25.4422081 Z M39.944979,25.4422081 C39.944979,26.4622132 40.0249782,27.3972039 40.184979,28.2472081 C40.3449798,29.0972124 40.6149771,29.8122052 40.994979,30.3922081 C41.2949805,30.8722105 41.6849766,31.2572067 42.164979,31.5472081 C42.6449814,31.8372096 43.2349755,31.9822081 43.934979,31.9822081 C44.6549826,31.9822081 45.2449767,31.8372096 45.704979,31.5472081 C46.1649813,31.2572067 46.5449775,30.8722105 46.844979,30.3922081 C47.244981,29.8122052 47.5249782,29.0972124 47.684979,28.2472081 C47.8449798,27.3972039 47.924979,26.4622132 47.924979,25.4422081 C47.924979,24.422203 47.8449798,23.4872124 47.684979,22.6372081 C47.5249782,21.7872039 47.244981,21.072211 46.844979,20.4922081 C46.5449775,20.0122057 46.1649813,19.6272096 45.704979,19.3372081 C45.2449767,19.0472067 44.6549826,18.9022081 43.934979,18.9022081 C43.2349755,18.9022081 42.6449814,19.0472067 42.164979,19.3372081 C41.6849766,19.6272096 41.2949805,20.0122057 40.994979,20.4922081 C40.6149771,21.072211 40.3449798,21.7872039 40.184979,22.6372081 C40.0249782,23.4872124 39.944979,24.422203 39.944979,25.4422081 Z M58.1144919,26.83708 C58.1544921,27.7370845 58.4944887,28.5070768 59.1344919,29.14708 C59.7744951,29.7870832 60.6144867,30.10708 61.6544919,30.10708 C62.5944966,30.10708 63.3894887,29.8220829 64.0394919,29.25208 C64.6894952,28.6820772 65.0144919,27.9070849 65.0144919,26.92708 C65.0144919,26.3670772 64.9194929,25.8820821 64.7294919,25.47208 C64.539491,25.062078 64.2844935,24.7220814 63.9644919,24.45208 C63.6444903,24.1820787 63.279494,23.9820807 62.8694919,23.85208 C62.4594899,23.7220794 62.0244942,23.65708 61.5644919,23.65708 C60.9044886,23.65708 60.3194945,23.7870787 59.8094919,24.04708 C59.2994894,24.3070813 58.8844935,24.6170782 58.5644919,24.97708 C58.4644914,24.9370798 58.2294938,24.8520807 57.8594919,24.72208 C57.4894901,24.5920794 57.094494,24.4570807 56.6744919,24.31708 C56.2544898,24.1770793 55.8594938,24.0420807 55.4894919,23.91208 C55.1194901,23.7820794 54.8844924,23.7070801 54.7844919,23.68708 L57.0944919,13.69708 L68.0744919,13.69708 L68.0744919,17.26708 L59.9144919,17.26708 L58.9544919,21.55708 C59.374494,21.157078 59.9044887,20.857081 60.5444919,20.65708 C61.1844951,20.457079 61.8244887,20.35708 62.4644919,20.35708 C63.4444968,20.35708 64.3394879,20.5020786 65.1494919,20.79208 C65.959496,21.0820815 66.659489,21.5020773 67.2494919,22.05208 C67.8394949,22.6020828 68.2994903,23.282076 68.6294919,24.09208 C68.9594936,24.9020841 69.1244919,25.8270748 69.1244919,26.86708 C69.1244919,27.7670845 68.9544936,28.6270759 68.6144919,29.44708 C68.2744902,30.2670841 67.7844951,30.9870769 67.1444919,31.60708 C66.5044887,32.2270831 65.7244965,32.7220782 64.8044919,33.09208 C63.8844873,33.4620819 62.8344978,33.64708 61.6544919,33.64708 C60.5944866,33.64708 59.6244963,33.4820817 58.7444919,33.15208 C57.8644875,32.8220784 57.0994952,32.3820828 56.4494919,31.83208 C55.7994887,31.2820773 55.2844938,30.6470836 54.9044919,29.92708 C54.52449,29.2070764 54.3044922,28.4670838 54.2444919,27.70708 L58.1144919,26.83708 Z M91.5452105,14.7729134 C91.5052103,14.6329127 91.4702107,14.4329147 91.4402105,14.1729134 C91.4102104,13.9129121 91.3952105,13.6629146 91.3952105,13.4229134 C91.3952105,12.5629091 91.5552089,11.7429173 91.8752105,10.9629134 C92.1952121,10.1829095 92.6552075,9.49291636 93.2552105,8.89291336 C93.8552135,8.29291036 94.5952061,7.81291516 95.4752105,7.45291336 C96.3552149,7.09291156 97.3652048,6.91291336 98.5052105,6.91291336 C99.5852159,6.91291336 100.560206,7.08291166 101.430211,7.42291336 C102.300215,7.76291506 103.040207,8.21791051 103.650211,8.78791336 C104.260214,9.35791621 104.725209,10.0229096 105.045211,10.7829134 C105.365212,11.5429172 105.525211,12.3429092 105.525211,13.1829134 C105.525211,14.4429197 105.195214,15.5779083 104.535211,16.5879134 C103.875207,17.5979184 102.945217,18.4729097 101.745211,19.2129134 L97.9952105,21.4929134 C97.6152086,21.7329146 97.280212,21.992912 96.9902105,22.2729134 C96.7002091,22.5529148 96.4752113,22.8829115 96.3152105,23.2629134 L105.645211,23.2629134 L105.645211,26.8329134 L91.2452105,26.8329134 C91.2652106,25.1129048 91.6002073,23.5579203 92.2502105,22.1679134 C92.9002138,20.7779064 94.0952018,19.5629186 95.8352105,18.5229134 L99.0452105,16.6029134 C99.8852147,16.1029109 100.480209,15.587916 100.830211,15.0579134 C101.180212,14.5279107 101.355211,13.9229168 101.355211,13.2429134 C101.355211,12.5429099 101.110213,11.9229161 100.620211,11.3829134 C100.130208,10.8429107 99.3952154,10.5729134 98.4152105,10.5729134 C97.3752053,10.5729134 96.6002131,10.8829103 96.0902105,11.5029134 C95.580208,12.1229165 95.3252105,12.8929088 95.3252105,13.8129134 C95.3252105,14.1729152 95.37521,14.5329116 95.4752105,14.8929134 L91.5452105,14.7729134 Z M123.315211,24.3129134 C123.315211,23.5529096 123.580208,22.907916 124.110211,22.3779134 C124.640213,21.8479107 125.285207,21.5829134 126.045211,21.5829134 C126.805214,21.5829134 127.455208,21.8479107 127.995211,22.3779134 C128.535213,22.907916 128.805211,23.5529096 128.805211,24.3129134 C128.805211,25.0729172 128.535213,25.7179107 127.995211,26.2479134 C127.455208,26.777916 126.805214,27.0429134 126.045211,27.0429134 C125.285207,27.0429134 124.640213,26.777916 124.110211,26.2479134 C123.580208,25.7179107 123.315211,25.0729172 123.315211,24.3129134 Z M131.355211,17.1129134 C131.355211,15.8529071 131.475209,14.6379192 131.715211,13.4679134 C131.955212,12.2979075 132.405207,11.2029185 133.065211,10.1829134 C133.705214,9.22290856 134.555205,8.43791641 135.615211,7.82791336 C136.675216,7.21791031 137.965203,6.91291336 139.485211,6.91291336 C141.005218,6.91291336 142.290205,7.21791031 143.340211,7.82791336 C144.390216,8.43791641 145.235207,9.22290856 145.875211,10.1829134 C146.535214,11.2029185 146.990209,12.2979075 147.240211,13.4679134 C147.490212,14.6379192 147.615211,15.8529071 147.615211,17.1129134 C147.615211,18.3729197 147.490212,19.5879075 147.240211,20.7579134 C146.990209,21.9279192 146.535214,23.0229083 145.875211,24.0429134 C145.235207,25.0029182 144.390216,25.7879103 143.340211,26.3979134 C142.290205,27.0079164 141.005218,27.3129134 139.485211,27.3129134 C137.965203,27.3129134 136.675216,27.0079164 135.615211,26.3979134 C134.555205,25.7879103 133.705214,25.0029182 133.065211,24.0429134 C132.405207,23.0229083 131.955212,21.9279192 131.715211,20.7579134 C131.475209,19.5879075 131.355211,18.3729197 131.355211,17.1129134 Z M135.495211,17.1129134 C135.495211,18.1329185 135.57521,19.0679091 135.735211,19.9179134 C135.895211,20.7679176 136.165209,21.4829105 136.545211,22.0629134 C136.845212,22.5429158 137.235208,22.9279119 137.715211,23.2179134 C138.195213,23.5079148 138.785207,23.6529134 139.485211,23.6529134 C140.205214,23.6529134 140.795208,23.5079148 141.255211,23.2179134 C141.715213,22.9279119 142.095209,22.5429158 142.395211,22.0629134 C142.795213,21.4829105 143.07521,20.7679176 143.235211,19.9179134 C143.395211,19.0679091 143.475211,18.1329185 143.475211,17.1129134 C143.475211,16.0929083 143.395211,15.1579176 143.235211,14.3079134 C143.07521,13.4579091 142.795213,12.7429163 142.395211,12.1629134 C142.095209,11.682911 141.715213,11.2979148 141.255211,11.0079134 C140.795208,10.7179119 140.205214,10.5729134 139.485211,10.5729134 C138.785207,10.5729134 138.195213,10.7179119 137.715211,11.0079134 C137.235208,11.2979148 136.845212,11.682911 136.545211,12.1629134 C136.165209,12.7429163 135.895211,13.4579091 135.735211,14.3079134 C135.57521,15.1579176 135.495211,16.0929083 135.495211,17.1129134 Z M151.524967,21.8753493 C151.864969,22.0753503 152.354964,22.2653484 152.994967,22.4453493 C153.63497,22.6253502 154.294964,22.7153493 154.974967,22.7153493 C156.754976,22.7153493 158.194962,22.245354 159.294967,21.3053493 C160.394973,20.3653446 161.014966,18.9953583 161.154967,17.1953493 C160.754965,17.8153524 160.159971,18.3203474 159.369967,18.7103493 C158.579963,19.1003513 157.674972,19.2953493 156.654967,19.2953493 C155.754963,19.2953493 154.894971,19.1453508 154.074967,18.8453493 C153.254963,18.5453478 152.53997,18.1103522 151.929967,17.5403493 C151.319964,16.9703465 150.834969,16.2803534 150.474967,15.4703493 C150.114965,14.6603453 149.934967,13.7553543 149.934967,12.7553493 C149.934967,11.7553443 150.119965,10.8353535 150.489967,9.99534931 C150.859969,9.15534511 151.379964,8.43535231 152.049967,7.83534931 C152.71997,7.23534631 153.509962,6.76535101 154.419967,6.42534931 C155.329972,6.08534761 156.324962,5.91534931 157.404967,5.91534931 C158.464972,5.91534931 159.464962,6.10534741 160.404967,6.48534931 C161.344972,6.86535121 162.169963,7.43534551 162.879967,8.19534931 C163.589971,8.95535311 164.149965,9.91034356 164.559967,11.0603493 C164.969969,12.2103551 165.174967,13.5653415 165.174967,15.1253493 C165.174967,18.6253668 164.314976,21.3603395 162.594967,23.3303493 C160.874958,25.3003592 158.344984,26.2853493 155.004967,26.2853493 C154.164963,26.2853493 153.334971,26.1853503 152.514967,25.9853493 C151.694963,25.7853483 151.02497,25.5253509 150.504967,25.2053493 L151.524967,21.8753493 Z M160.614967,12.6353493 C160.614967,12.1553469 160.524968,11.7203513 160.344967,11.3303493 C160.164966,10.9403474 159.924969,10.6003508 159.624967,10.3103493 C159.324966,10.0203479 158.969969,9.80035006 158.559967,9.65034931 C158.149965,9.50034856 157.714969,9.42534931 157.254967,9.42534931 C156.814965,9.42534931 156.389969,9.50034856 155.979967,9.65034931 C155.569965,9.80035006 155.214969,10.0203479 154.914967,10.3103493 C154.614966,10.6003508 154.374968,10.9403474 154.194967,11.3303493 C154.014966,11.7203513 153.924967,12.1553469 153.924967,12.6353493 C153.924967,13.6153542 154.249964,14.3953464 154.899967,14.9753493 C155.54997,15.5553522 156.334962,15.8453493 157.254967,15.8453493 C157.714969,15.8453493 158.149965,15.7703501 158.559967,15.6203493 C158.969969,15.4703486 159.324966,15.2503508 159.624967,14.9603493 C159.924969,14.6703479 160.164966,14.3303513 160.344967,13.9403493 C160.524968,13.5503474 160.614967,13.1153517 160.614967,12.6353493 Z" id="Combined-Shape" fill="#333333" style="mix-blend-mode: multiply;" transform="translate(83.059973, 21.169497) rotate(-4.000000) translate(-83.059973, -21.169497) "></path>
                        <path d="M78.5,20.5 L86.5,19.5" id="Line" stroke="#202020" stroke-width="3" stroke-linecap="round" stroke-linejoin="round" style="mix-blend-mode: multiply;"></path>
                    </g>
                </g>
            </g>
        </g>
    </g>
</svg>