<?xml version="1.0" encoding="UTF-8"?>
<svg width="37px" height="37px" viewBox="0 0 37 37" version="1.1" xmlns="http://www.w3.org/2000/svg" xmlns:xlink="http://www.w3.org/1999/xlink">
    <!-- Generator: Sketch 41.2 (35397) - http://www.bohemiancoding.com/sketch -->
    <title>Facebook</title>
    <desc>Created with Sketch.</desc>
    <defs></defs>
    <g id="Page-1" stroke="none" stroke-width="1" fill="none" fill-rule="evenodd">
        <g id="Artboard" fill="#000000">
            <path d="M36.711,34.685 C36.711,35.804 35.804,36.712 34.685,36.712 L25.33,36.712 L25.33,22.495 L30.102,22.495 L30.817,16.955 L25.33,16.955 L25.33,13.417 C25.33,11.813 25.776,10.72 28.076,10.72 L31.01,10.719 L31.01,5.763 C30.502,5.696 28.761,5.545 26.735,5.545 C22.505,5.545 19.609,8.127 19.609,12.869 L19.609,16.955 L14.825,16.955 L14.825,22.495 L19.609,22.495 L19.609,36.712 L2.026,36.712 C0.907,36.712 0,35.804 0,34.685 L0,2.027 C0,0.907 0.907,0 2.026,0 L34.685,0 C35.804,0 36.711,0.907 36.711,2.027 L36.711,34.685" id="Facebook"></path>
        </g>
    </g>
</svg>