<?xml version="1.0" encoding="UTF-8"?>
<svg width="37px" height="37px" viewBox="0 0 37 37" version="1.1" xmlns="http://www.w3.org/2000/svg" xmlns:xlink="http://www.w3.org/1999/xlink">
    <!-- Generator: Sketch 41.2 (35397) - http://www.bohemiancoding.com/sketch -->
    <title>Instagram</title>
    <desc>Created with Sketch.</desc>
    <defs></defs>
    <g id="Page-1" stroke="none" stroke-width="1" fill="none" fill-rule="evenodd">
        <g id="Artboard-Copy-2" fill="#000000">
            <path d="M32.305,0 L4.358,0 C1.951,0 0,1.946 0,4.348 L0,32.315 C0,34.716 1.951,36.663 4.358,36.663 L32.305,36.663 C34.712,36.663 36.663,34.716 36.663,32.315 L36.663,4.348 C36.663,1.946 34.712,0 32.305,0 L32.305,0 Z M26.352,5.728 C26.352,5.096 26.865,4.583 27.497,4.583 L30.934,4.583 C31.567,4.583 32.08,5.096 32.08,5.728 L32.08,9.166 C32.08,9.798 31.567,10.311 30.934,10.311 L27.497,10.311 C26.865,10.311 26.352,9.798 26.352,9.166 L26.352,5.728 L26.352,5.728 Z M18.374,11.34 C22.268,11.34 25.425,14.49 25.425,18.374 C25.425,22.259 22.268,25.408 18.374,25.408 C14.481,25.408 11.324,22.259 11.324,18.374 C11.324,14.49 14.481,11.34 18.374,11.34 L18.374,11.34 Z M33.226,32.08 C33.226,32.712 32.713,33.226 32.08,33.226 L4.583,33.226 C3.95,33.226 3.437,32.712 3.437,32.08 L3.437,14.894 L8.02,14.894 C7.423,15.753 7.221,17.356 7.221,18.374 C7.221,24.509 12.225,29.501 18.374,29.501 C24.524,29.501 29.528,24.509 29.528,18.374 C29.528,17.356 29.383,15.778 28.643,14.894 L33.226,14.894 L33.226,32.08 L33.226,32.08 Z" id="Instagram"></path>
        </g>
    </g>
</svg>