<?xml version="1.0" encoding="UTF-8"?>
<svg width="450px" height="332px" viewBox="0 0 450 332" version="1.1" xmlns="http://www.w3.org/2000/svg" xmlns:xlink="http://www.w3.org/1999/xlink">
    <!-- Generator: Sketch 41.2 (35397) - http://www.bohemiancoding.com/sketch -->
    <title>Page 1</title>
    <desc>Created with Sketch.</desc>
    <defs>
        <path d="M1.099,1.588 C-1.364,4.992 2.194,9.181 4.252,10.011 C6.311,10.843 8.011,11.893 9.928,11.37 C11.845,10.848 13.326,9.607 14.066,8.021 C14.806,6.434 13.923,2.804 12.012,1.655 C11.009,1.053 10.117,1.352 9.236,1.653 C8.438,1.925 7.649,2.196 6.795,1.797 C5.664,1.271 4.419,0.333 3.2,0.333 C2.481,0.333 1.771,0.659 1.099,1.588 Z" id="path-1"></path>
        <linearGradient x1="25.351708%" y1="40.902356%" x2="29.3822405%" y2="39.7467751%" id="linearGradient-3">
            <stop stop-color="#6EB2D1" offset="0%"></stop>
            <stop stop-color="#6EB2D1" offset="100%"></stop>
        </linearGradient>
        <path d="M1.495,1.587 C-0.967,4.991 2.59,9.181 4.648,10.011 C6.708,10.843 8.407,11.893 10.324,11.37 C12.242,10.848 13.722,9.607 14.462,8.021 C15.202,6.434 14.319,2.803 12.408,1.655 C11.405,1.053 10.513,1.353 9.632,1.653 C8.834,1.925 8.045,2.197 7.192,1.798 C6.061,1.271 4.814,0.333 3.595,0.333 C2.876,0.333 2.166,0.659 1.495,1.587 Z" id="path-4"></path>
        <linearGradient x1="40.1888998%" y1="64.8550057%" x2="44.2194323%" y2="63.6994248%" id="linearGradient-6">
            <stop stop-color="#6EB2D1" offset="0%"></stop>
            <stop stop-color="#6EB2D1" offset="100%"></stop>
        </linearGradient>
        <path d="M1.495,1.588 C-0.968,4.992 2.59,9.18 4.648,10.012 C6.708,10.844 8.407,11.893 10.325,11.371 C12.242,10.849 13.722,9.608 14.462,8.021 C15.202,6.434 14.32,2.804 12.408,1.655 C11.405,1.052 10.513,1.353 9.632,1.653 C8.834,1.924 8.045,2.196 7.192,1.798 C6.06,1.27 4.815,0.332 3.596,0.332 C2.876,0.332 2.167,0.659 1.495,1.588 Z" id="path-7"></path>
        <linearGradient x1="64.8318986%" y1="35.0833514%" x2="68.8624311%" y2="33.9277705%" id="linearGradient-9">
            <stop stop-color="#6EB2D1" offset="0%"></stop>
            <stop stop-color="#6EB2D1" offset="100%"></stop>
        </linearGradient>
        <path d="M1.495,1.588 C-0.967,4.992 2.59,9.181 4.649,10.012 C6.708,10.843 8.407,11.893 10.324,11.37 C12.242,10.848 13.722,9.607 14.462,8.021 C15.202,6.434 14.319,2.804 12.408,1.656 C11.406,1.053 10.514,1.353 9.633,1.653 C8.834,1.925 8.045,2.197 7.191,1.797 C6.06,1.27 4.815,0.333 3.596,0.333 C2.876,0.333 2.167,0.659 1.495,1.588 Z" id="path-10"></path>
        <linearGradient x1="63.5348985%" y1="52.6756909%" x2="67.5654311%" y2="51.52011%" id="linearGradient-12">
            <stop stop-color="#6EB2D1" offset="0%"></stop>
            <stop stop-color="#6EB2D1" offset="100%"></stop>
        </linearGradient>
        <path d="M12.583,0.955 C10.529,0.955 8.534,1.766 8.183,3.841 C7.324,8.904 1.185,10.769 1.185,10.769 C1.185,10.769 -1.185,12.137 1.529,14.63 C4.242,17.122 2.855,15.944 2.043,21.525 C1.231,27.105 11.145,22.377 9.515,19.552 C7.884,16.727 13.48,13.718 17.006,14.985 C20.531,16.251 22.442,10.895 20.245,7.088 C19.093,5.094 16.736,7.153 14.55,9.212 C12.567,11.081 10.726,12.949 10.056,11.787 C8.647,9.346 14.563,8.034 17.113,4.637 C18.618,2.633 15.54,0.955 12.585,0.955 L12.583,0.955 Z" id="path-13"></path>
        <linearGradient x1="52.8714599%" y1="65.1583859%" x2="58.1820936%" y2="66.0311227%" id="linearGradient-15">
            <stop stop-color="#FF4242" offset="0%"></stop>
            <stop stop-color="#FF4242" offset="100%"></stop>
        </linearGradient>
        <path d="M12.583,0.929 C10.529,0.929 8.534,1.74 8.183,3.815 C7.324,8.877 1.185,10.743 1.185,10.743 C1.185,10.743 -1.185,12.111 1.529,14.604 C4.242,17.096 2.855,15.918 2.043,21.498 C1.231,27.079 11.145,22.35 9.515,19.526 C7.884,16.701 13.48,13.692 17.006,14.959 C20.531,16.225 22.442,10.868 20.245,7.062 C19.093,5.068 16.736,7.127 14.55,9.185 C12.567,11.055 10.726,12.923 10.055,11.761 C8.647,9.32 14.563,8.008 17.113,4.611 C18.618,2.607 15.54,0.929 12.585,0.929 L12.583,0.929 Z" id="path-16"></path>
        <linearGradient x1="39.4869699%" y1="54.5025538%" x2="44.7976036%" y2="55.3752906%" id="linearGradient-18">
            <stop stop-color="#FF4242" offset="0%"></stop>
            <stop stop-color="#FF4242" offset="100%"></stop>
        </linearGradient>
        <path d="M8.183,3.815 C7.324,8.877 1.185,10.743 1.185,10.743 C1.185,10.743 -1.184,12.111 1.529,14.604 C4.242,17.096 2.855,15.918 2.042,21.498 C1.231,27.079 11.145,22.351 9.514,19.526 C7.883,16.701 13.48,13.692 17.006,14.958 C20.532,16.225 22.443,10.869 20.245,7.062 C19.093,5.068 16.735,7.127 14.55,9.185 C12.567,11.054 10.726,12.922 10.055,11.761 C8.646,9.32 14.562,8.008 17.114,4.61 C18.619,2.606 15.539,0.928 12.583,0.928 C10.529,0.929 8.535,1.74 8.183,3.815 Z" id="path-19"></path>
        <linearGradient x1="19.6580879%" y1="32.817123%" x2="24.9687216%" y2="33.6898598%" id="linearGradient-21">
            <stop stop-color="#FF4242" offset="0%"></stop>
            <stop stop-color="#FF4242" offset="100%"></stop>
        </linearGradient>
        <path d="M0.872,4.816 C1.482,8.15 7.281,9.114 9.857,17.11 C12.432,25.105 23.361,12.766 19.7,8.554 C18.132,6.752 16.284,7.908 14.735,9.064 C12.664,10.609 11.127,12.155 11.509,6.631 C11.809,2.276 9.55,0.803 7.036,0.803 C3.976,0.803 0.537,2.986 0.872,4.816 Z" id="path-22"></path>
        <linearGradient x1="42.2682885%" y1="42.5722211%" x2="46.7462759%" y2="43.5216962%" id="linearGradient-24">
            <stop stop-color="#F7C53B" offset="0%"></stop>
            <stop stop-color="#F7C53B" offset="100%"></stop>
        </linearGradient>
        <path d="M0.872,4.816 C1.481,8.15 7.282,9.114 9.857,17.11 C12.432,25.105 23.361,12.766 19.699,8.554 C18.132,6.751 16.284,7.908 14.735,9.064 C12.664,10.609 11.126,12.155 11.508,6.631 C11.809,2.276 9.55,0.802 7.036,0.802 C3.976,0.802 0.537,2.986 0.872,4.816 Z" id="path-25"></path>
        <linearGradient x1="24.652437%" y1="61.3919161%" x2="29.1304244%" y2="62.3413912%" id="linearGradient-27">
            <stop stop-color="#F7C53B" offset="0%"></stop>
            <stop stop-color="#F7C53B" offset="100%"></stop>
        </linearGradient>
        <path d="M1.495,1.588 C-0.967,4.992 2.589,9.18 4.649,10.012 C6.708,10.844 8.407,11.893 10.324,11.371 C12.242,10.849 13.722,9.607 14.462,8.021 C15.202,6.434 14.319,2.804 12.409,1.656 C11.405,1.053 10.513,1.353 9.632,1.653 C8.835,1.925 8.045,2.196 7.191,1.798 C6.06,1.27 4.815,0.333 3.596,0.333 C2.877,0.333 2.167,0.659 1.495,1.588 Z" id="path-28"></path>
    </defs>
    <g id="Design" stroke="none" stroke-width="1" fill="none" fill-rule="evenodd">
        <g id="Artboard" transform="translate(-23.000000, -13.000000)">
            <g id="Page-1" transform="translate(23.000000, 13.000000)">
                <g id="Group-3" style="mix-blend-mode: multiply;" transform="translate(51.000000, 82.360000)">
                    <mask id="mask-2" fill="white">
                        <use xlink:href="#path-1"></use>
                    </mask>
                    <g id="Clip-2"></g>
                    <polygon id="Fill-1" fill="url(#linearGradient-3)" mask="url(#mask-2)" points="-203.752 192.293 22.342 -292.566 567.258 -38.467 341.164 446.392"></polygon>
                </g>
                <g id="Group-6" style="mix-blend-mode: multiply;" transform="translate(165.000000, 279.360000)">
                    <mask id="mask-5" fill="white">
                        <use xlink:href="#path-4"></use>
                    </mask>
                    <g id="Clip-5"></g>
                    <polygon id="Fill-4" fill="url(#linearGradient-6)" mask="url(#mask-5)" points="-317.752 15.293 -91.658 -469.566 453.258 -215.467 227.164 269.392"></polygon>
                </g>
                <g id="Group-9" style="mix-blend-mode: multiply;" transform="translate(355.000000, 49.360000)">
                    <mask id="mask-8" fill="white">
                        <use xlink:href="#path-7"></use>
                    </mask>
                    <g id="Clip-8"></g>
                    <polygon id="Fill-7" fill="url(#linearGradient-9)" mask="url(#mask-8)" points="-507.752 235.293 -281.658 -249.566 263.258 4.533 37.164 489.392"></polygon>
                </g>
                <g id="Group-12" style="mix-blend-mode: multiply;" transform="translate(335.000000, 209.360000)">
                    <mask id="mask-11" fill="white">
                        <use xlink:href="#path-10"></use>
                    </mask>
                    <g id="Clip-11"></g>
                    <polygon id="Fill-10" fill="url(#linearGradient-12)" mask="url(#mask-11)" points="-497.752 105.293 -271.658 -379.566 273.258 -125.467 47.164 359.392"></polygon>
                </g>
                <g id="Group-15" style="mix-blend-mode: multiply;" transform="translate(248.000000, 250.360000)">
                    <mask id="mask-14" fill="white">
                        <use xlink:href="#path-13"></use>
                    </mask>
                    <g id="Clip-14"></g>
                    <polygon id="Fill-13" fill="url(#linearGradient-15)" mask="url(#mask-14)" points="-438.699 -200.837 88.753 -505.361 368.205 -21.337 -159.247 283.187"></polygon>
                </g>
                <g id="Group-18" style="mix-blend-mode: multiply;" transform="translate(176.000000, 99.360000)">
                    <mask id="mask-17" fill="white">
                        <use xlink:href="#path-16"></use>
                    </mask>
                    <g id="Clip-17"></g>
                    <polygon id="Fill-16" fill="url(#linearGradient-18)" mask="url(#mask-17)" points="-330.699 -116.837 196.753 -421.361 476.205 62.663 -51.247 367.187"></polygon>
                </g>
                <g id="Group-21" style="mix-blend-mode: multiply;" transform="translate(0.000000, 15.360000)">
                    <mask id="mask-20" fill="white">
                        <use xlink:href="#path-19"></use>
                    </mask>
                    <g id="Clip-20"></g>
                    <polygon id="Fill-19" fill="url(#linearGradient-21)" mask="url(#mask-20)" points="-170.699 54.163 356.753 -250.361 636.205 233.663 108.753 538.187"></polygon>
                </g>
                <g id="Group-24" style="mix-blend-mode: multiply;" transform="translate(160.000000, 198.360000)">
                    <mask id="mask-23" fill="white">
                        <use xlink:href="#path-22"></use>
                    </mask>
                    <g id="Clip-23"></g>
                    <polygon id="Fill-22" fill="url(#linearGradient-24)" mask="url(#mask-23)" points="-368 42.932 23.238 493 483.506 92.895 92.268 -357.173"></polygon>
                </g>
                <g id="Group-27" style="mix-blend-mode: multiply;" transform="translate(5.000000, 271.360000)">
                    <mask id="mask-26" fill="white">
                        <use xlink:href="#path-25"></use>
                    </mask>
                    <g id="Clip-26"></g>
                    <polygon id="Fill-25" fill="url(#linearGradient-27)" mask="url(#mask-26)" points="-218 -117.068 173.238 333 633.506 -67.105 242.268 -517.173"></polygon>
                </g>
                <g id="Group-232" style="mix-blend-mode: multiply;" transform="translate(2.000000, 0.360000)" fill="#6E9C48">
                    <path d="M119.2501,154.4135 C119.2501,154.4135 107.4851,154.4135 107.4851,152.4135 C107.4851,150.4135 118.1801,151.4135 119.2501,152.4135 C120.3191,153.4135 121.3891,154.4135 119.2501,154.4135" id="Fill-28" style="mix-blend-mode: multiply;"></path>
                    <path d="M120.1515,152.2934 C120.1515,152.2934 125.1715,138.5864 127.0485,139.2744 C128.9275,139.9624 123.4245,152.0794 122.0295,152.9814 C120.6345,153.8834 119.2385,154.7854 120.1515,152.2934" id="Fill-30" style="mix-blend-mode: multiply;"></path>
                    <path d="M118.0582,152.2758 C118.0582,152.2758 110.4852,140.4138 112.4852,139.4138 C114.4852,138.4138 118.4852,146.4138 119.4852,150.4138 C120.4852,154.4138 119.6312,154.1378 118.0582,152.2758" id="Fill-32" style="mix-blend-mode: multiply;"></path>
                    <path d="M108.485,145.4135 C108.485,147.6495 118.754,154.3045 119.119,153.3595 C119.485,152.4135 114.485,147.4135 112.485,146.4135 C110.485,145.4135 108.485,144.4135 108.485,145.4135" id="Fill-34" style="mix-blend-mode: multiply;"></path>
                    <path d="M119.485,150.4135 C119.485,150.4135 117.485,136.4135 120.485,136.4135 C123.485,136.4135 122.485,148.4135 121.485,151.4135 C120.485,154.4135 119.485,154.4135 119.485,150.4135" id="Fill-36" style="mix-blend-mode: multiply;"></path>
                    <path d="M119.7389,152.1357 C119.7389,152.1357 132.9939,147.1167 133.7019,148.9877 C134.4099,150.8587 122.0069,154.4857 120.4469,154.0067 C118.8879,153.5277 117.3289,153.0487 119.7389,152.1357" id="Fill-38" style="mix-blend-mode: multiply;"></path>
                    <path d="M124.1119,152.7822 C124.1119,152.7822 133.3729,143.7662 131.8809,142.4242 C130.3879,141.0822 125.0969,147.4072 123.3129,150.7902 C121.5279,154.1732 122.3269,154.1132 124.1119,152.7822" id="Fill-40" style="mix-blend-mode: multiply;"></path>
                    <path d="M119.485,154.4135 C119.485,154.4135 119.485,155.4135 120.485,155.4135 C121.485,155.4135 121.331,154.4095 120.908,153.9115 C120.485,153.4135 119.485,154.4135 119.485,154.4135" id="Fill-42" style="mix-blend-mode: multiply;"></path>
                    <path d="M349.2501,134.4135 C349.2501,134.4135 337.4851,134.4135 337.4851,132.4135 C337.4851,130.4135 348.1801,131.4135 349.2501,132.4135 C350.3191,133.4135 351.3891,134.4135 349.2501,134.4135" id="Fill-44" style="mix-blend-mode: multiply;"></path>
                    <path d="M350.1515,132.2934 C350.1515,132.2934 355.1715,118.5864 357.0485,119.2744 C358.9275,119.9624 353.4245,132.0794 352.0295,132.9814 C350.6345,133.8834 349.2385,134.7854 350.1515,132.2934" id="Fill-46" style="mix-blend-mode: multiply;"></path>
                    <path d="M348.0582,132.2758 C348.0582,132.2758 340.4852,120.4138 342.4852,119.4138 C344.4852,118.4138 348.4852,126.4138 349.4852,130.4138 C350.4852,134.4138 349.6312,134.1378 348.0582,132.2758" id="Fill-48" style="mix-blend-mode: multiply;"></path>
                    <path d="M338.485,125.4135 C338.485,127.6495 348.754,134.3045 349.119,133.3595 C349.485,132.4135 344.485,127.4135 342.485,126.4135 C340.485,125.4135 338.485,124.4135 338.485,125.4135" id="Fill-50" style="mix-blend-mode: multiply;"></path>
                    <path d="M349.485,130.4135 C349.485,130.4135 347.485,116.4135 350.485,116.4135 C353.485,116.4135 352.485,128.4135 351.485,131.4135 C350.485,134.4135 349.485,134.4135 349.485,130.4135" id="Fill-52" style="mix-blend-mode: multiply;"></path>
                    <path d="M349.7076,132.1474 C349.7076,132.1474 362.6636,127.2424 363.3716,129.1134 C364.0796,130.9834 351.9476,134.5074 350.4156,134.0184 C348.8836,133.5284 347.3526,133.0394 349.7076,132.1474" id="Fill-54" style="mix-blend-mode: multiply;"></path>
                    <path d="M354.1119,132.7822 C354.1119,132.7822 363.3729,123.7662 361.8809,122.4242 C360.3879,121.0822 355.0969,127.4072 353.3129,130.7902 C351.5279,134.1732 352.3269,134.1132 354.1119,132.7822" id="Fill-56" style="mix-blend-mode: multiply;"></path>
                    <path d="M349.485,134.4135 C349.485,134.4135 349.485,135.4135 350.485,135.4135 C351.485,135.4135 351.331,134.4095 350.908,133.9115 C350.485,133.4135 349.485,134.4135 349.485,134.4135" id="Fill-58" style="mix-blend-mode: multiply;"></path>
                    <path d="M271.3317,39.5649 C271.3317,39.5649 245.1107,30.8699 246.5887,26.4119 C248.0667,21.9549 271.1647,32.0879 272.8097,35.1069 C274.4547,38.1269 276.0997,41.1459 271.3317,39.5649" id="Fill-60" style="mix-blend-mode: multiply;"></path>
                    <path d="M274.9078,35.5058 C274.9078,35.5058 296.2248,8.6668 299.9028,11.5878 C303.5798,14.5088 282.3618,37.4468 278.5858,38.4268 C274.8088,39.4058 271.0328,40.3858 274.9078,35.5058" id="Fill-62" style="mix-blend-mode: multiply;"></path>
                    <path d="M270.2555,33.9194 C270.2555,33.9194 262.1435,1.8844 267.3395,1.1334 C272.5365,0.3824 275.5395,21.1694 274.8115,30.8234 C274.0845,40.4774 272.3855,39.2324 270.2555,33.9194" id="Fill-64" style="mix-blend-mode: multiply;"></path>
                    <path d="M253.9904,11.5497 C252.3384,16.5337 270.3054,38.9547 271.8194,37.1177 C273.3334,35.2807 265.8854,20.4417 262.1664,16.7347 C258.4484,13.0277 254.7294,9.3207 253.9904,11.5497" id="Fill-66" style="mix-blend-mode: multiply;"></path>
                    <path d="M274.8116,30.8232 C274.8116,30.8232 280.7006,-1.8578 287.3876,0.3592 C294.0736,2.5762 282.9766,28.5832 278.5306,34.5302 C274.0846,40.4772 271.8556,39.7382 274.8116,30.8232" id="Fill-68" style="mix-blend-mode: multiply;"></path>
                    <path d="M274.1051,34.8495 C274.1051,34.8495 307.3571,33.4605 307.5531,38.1525 C307.7491,42.8445 277.4221,41.7615 274.3011,39.5415 C271.1801,37.3215 268.0591,35.1015 274.1051,34.8495" id="Fill-70" style="mix-blend-mode: multiply;"></path>
                    <path d="M283.3732,39.5224 C283.3732,39.5224 310.6772,26.2724 308.3432,22.1774 C306.0102,18.0834 289.5412,28.2694 283.0642,34.4904 C276.5872,40.7114 278.4122,41.1684 283.3732,39.5224" id="Fill-72" style="mix-blend-mode: multiply;"></path>
                    <path d="M271.8556,39.7382 C271.8556,39.7382 271.1166,41.9672 273.3456,42.7062 C275.5736,43.4452 275.9736,41.0932 275.3986,39.6712 C274.8236,38.2482 271.8556,39.7382 271.8556,39.7382" id="Fill-74" style="mix-blend-mode: multiply;"></path>
                    <path d="M3.485,124.4135 C3.485,124.4135 9.485,134.4135 10.485,137.4135 C11.485,140.4135 20.485,159.4135 23.485,160.4135 C26.485,161.4135 14.485,148.4135 12.485,141.4135 C10.485,134.4135 5.485,125.4135 3.485,124.4135" id="Fill-76" style="mix-blend-mode: multiply;"></path>
                    <g id="Group-100" transform="translate(6.000000, 122.000000)">
                        <path d="M18.485,28.4135 C19.485,26.4135 19.485,28.4135 19.485,29.4135 C19.485,30.4135 17.485,34.4135 15.485,35.4135 C13.485,36.4135 18.038,29.3085 18.485,28.4135" id="Fill-78" style="mix-blend-mode: multiply;"></path>
                        <path d="M18.6066,23.7587 C20.2306,21.5007 19.5746,24.0107 19.2466,25.2667 C18.9186,26.5217 15.6706,31.0377 13.4076,31.7877 C11.1446,32.5367 17.8806,24.7687 18.6066,23.7587" id="Fill-80" style="mix-blend-mode: multiply;"></path>
                        <path d="M16.4332,21.3886 C17.6182,18.9636 17.1642,21.5186 16.9372,22.7956 C16.7102,24.0736 14.3402,28.9236 12.6512,29.9416 C10.9622,30.9596 15.9032,22.4726 16.4332,21.3886" id="Fill-82" style="mix-blend-mode: multiply;"></path>
                        <path d="M14.5377,18.8012 C15.7517,16.2112 15.2687,18.9312 15.0267,20.2912 C14.7847,21.6522 12.3557,26.8332 10.6527,27.9332 C8.9497,29.0342 13.9947,19.9602 14.5377,18.8012" id="Fill-84" style="mix-blend-mode: multiply;"></path>
                        <path d="M13.1115,15.4946 C14.4225,13.0416 14.1035,15.6176 13.9445,16.9056 C13.7855,18.1926 11.1625,23.0986 9.0185,24.1406 C6.8745,25.1826 12.5255,16.5916 13.1115,15.4946" id="Fill-86" style="mix-blend-mode: multiply;"></path>
                        <path d="M11.8722,10.9174 C13.1812,7.7954 12.6032,11.0474 12.3142,12.6734 C12.0252,14.2984 9.4082,20.5424 7.6572,21.9084 C5.9072,23.2734 11.2872,12.3134 11.8722,10.9174" id="Fill-88" style="mix-blend-mode: multiply;"></path>
                        <path d="M7.7477,8.2543 C8.6227,6.2883 8.4887,8.3043 8.4207,9.3123 C8.3527,10.3193 6.6017,14.2523 5.0537,15.1613 C3.5047,16.0693 7.3557,9.1333 7.7477,8.2543" id="Fill-90" style="mix-blend-mode: multiply;"></path>
                        <path d="M9.9127,8.6982 C11.0827,5.9732 10.9107,8.7602 10.8257,10.1532 C10.7397,11.5462 8.3997,16.9962 6.3187,18.2662 C4.2367,19.5372 9.3897,9.9172 9.9127,8.6982" id="Fill-92" style="mix-blend-mode: multiply;"></path>
                        <path d="M4.8903,5.6996 C5.4133,3.9216 5.8503,5.4196 6.0683,6.1696 C6.2863,6.9186 5.2403,10.4756 3.5383,11.7846 C1.8373,13.0936 4.6563,6.4946 4.8903,5.6996" id="Fill-94" style="mix-blend-mode: multiply;"></path>
                        <path d="M3.0026,3.9584 C3.2726,2.2534 3.7096,3.7524 3.9276,4.5014 C4.1466,5.2514 3.6066,8.6604 2.4106,9.8224 C1.2156,10.9834 2.8816,4.7204 3.0026,3.9584" id="Fill-96" style="mix-blend-mode: multiply;"></path>
                        <path d="M0.2062,1.77 C-0.0478,0.081 0.8192,1.352 1.2522,1.987 C1.6862,2.623 2.1942,6.002 1.4002,7.474 C0.6072,8.946 0.3192,2.526 0.2062,1.77" id="Fill-98" style="mix-blend-mode: multiply;"></path>
                    </g>
                    <g id="Group-123" transform="translate(0.000000, 127.000000)">
                        <path d="M13.6661,29.8398 C11.4351,29.6948 13.1621,30.7038 14.0251,31.2078 C14.8891,31.7128 19.3511,32.0028 21.2241,30.7798 C23.0961,29.5578 14.6641,29.9048 13.6661,29.8398" id="Fill-101" style="mix-blend-mode: multiply;"></path>
                        <path d="M9.5851,27.5971 C6.8161,27.8601 9.3151,28.5601 10.5651,28.9091 C11.8141,29.2601 17.3521,28.7331 19.1411,27.1581 C20.9291,25.5811 10.8231,27.4791 9.5851,27.5971" id="Fill-103" style="mix-blend-mode: multiply;"></path>
                        <path d="M8.6354,24.5248 C5.9434,24.3248 8.3784,25.2218 9.5964,25.6698 C10.8144,26.1178 16.1974,26.5188 17.9274,25.5738 C19.6584,24.6288 9.8394,24.6138 8.6354,24.5248" id="Fill-105" style="mix-blend-mode: multiply;"></path>
                        <path d="M7.3575,21.5829 C4.5075,21.3249 7.1015,22.2799 8.3975,22.7569 C9.6935,23.2339 15.3925,23.7509 17.2025,22.8349 C19.0115,21.9189 8.6315,21.6989 7.3575,21.5829" id="Fill-107" style="mix-blend-mode: multiply;"></path>
                        <path d="M5.2218,18.6835 C2.4428,18.5785 4.8268,19.6025 6.0188,20.1145 C7.2118,20.6265 12.7698,20.8365 14.7508,19.5105 C16.7328,18.1845 6.4648,18.7305 5.2218,18.6835" id="Fill-109" style="mix-blend-mode: multiply;"></path>
                        <path d="M1.8942,15.3051 C-1.4608,14.8611 1.6382,16.0021 3.1872,16.5721 C4.7372,17.1431 11.4482,18.0321 13.5102,17.2091 C15.5732,16.3871 3.3952,15.5041 1.8942,15.3051" id="Fill-111" style="mix-blend-mode: multiply;"></path>
                        <path d="M3.6754,10.4003 C1.5354,10.1643 3.3444,11.0653 4.2484,11.5153 C5.1534,11.9643 9.4314,12.4363 10.9974,11.5573 C12.5634,10.6783 4.6324,10.5053 3.6754,10.4003" id="Fill-113" style="mix-blend-mode: multiply;"></path>
                        <path d="M1.9664,12.4936 C-0.9766,12.1296 1.5154,13.3866 2.7624,14.0146 C4.0084,14.6436 9.8944,15.3726 12.0414,14.2166 C14.1884,13.0596 3.2824,12.6566 1.9664,12.4936" id="Fill-115" style="mix-blend-mode: multiply;"></path>
                        <path d="M3.9108,6.6445 C2.1108,6.1995 3.1848,7.3315 3.7218,7.8985 C4.2588,8.4655 7.8578,9.3555 9.8468,8.5465 C11.8348,7.7375 4.7158,6.8435 3.9108,6.6445" id="Fill-117" style="mix-blend-mode: multiply;"></path>
                        <path d="M3.359,4.1362 C1.751,3.5092 2.825,4.6422 3.362,5.2092 C3.899,5.7762 7.115,7.0292 8.721,6.5832 C10.327,6.1362 4.078,4.4162 3.359,4.1362" id="Fill-119" style="mix-blend-mode: multiply;"></path>
                        <path d="M3.8805,0.6176 C2.5495,-0.4534 3.2095,0.9356 3.5405,1.6316 C3.8705,2.3256 6.5315,4.4686 8.2025,4.5266 C9.8745,4.5836 4.4755,1.0966 3.8805,0.6176" id="Fill-121" style="mix-blend-mode: multiply;"></path>
                    </g>
                    <path d="M442.1364,16.4135 C442.1364,16.4135 435.6634,31.2265 433.0784,34.7675 C430.4944,38.3085 416.2674,63.7425 417.5494,67.9345 C418.8304,72.1265 423.8694,48.1255 430.1684,40.2415 C436.4674,32.3565 442.6144,19.4765 442.1364,16.4135" id="Fill-124" style="mix-blend-mode: multiply;"></path>
                    <g id="Group-148" transform="translate(418.000000, 18.000000)">
                        <path d="M11.6471,43.0278 C14.7101,42.5498 12.4511,44.1568 11.3211,44.9608 C10.1921,45.7648 4.0661,46.7198 1.3301,45.2648 C-1.4069,43.8098 10.2771,43.2408 11.6471,43.0278" id="Fill-126" style="mix-blend-mode: multiply;"></path>
                        <path d="M17.0026,39.4243 C20.8576,39.4433 17.4946,40.7203 15.8136,41.3583 C14.1316,41.9963 6.4206,41.9583 3.7556,40.0043 C1.0896,38.0503 15.2786,39.4153 17.0026,39.4243" id="Fill-128" style="mix-blend-mode: multiply;"></path>
                        <path d="M17.9327,35.0644 C21.6237,34.4544 18.3727,35.9944 16.7477,36.7644 C15.1227,37.5354 7.7397,38.7564 5.2327,37.6674 C2.7257,36.5774 16.2817,35.3374 17.9327,35.0644" id="Fill-130" style="mix-blend-mode: multiply;"></path>
                        <path d="M19.3312,30.8442 C23.2332,30.1342 19.7722,31.7742 18.0412,32.5942 C16.3102,33.4142 8.5062,34.8352 5.8942,33.7962 C3.2832,32.7562 17.5862,31.1622 19.3312,30.8442" id="Fill-132" style="mix-blend-mode: multiply;"></path>
                        <path d="M21.92,26.5756 C25.744,26.0856 22.579,27.7956 20.996,28.6506 C19.414,29.5056 11.766,30.4856 8.866,28.9016 C5.965,27.3176 20.21,26.7946 21.92,26.5756" id="Fill-134" style="mix-blend-mode: multiply;"></path>
                        <path d="M26.0939,21.498 C30.6719,20.467 26.5339,22.428 24.4659,23.408 C22.3979,24.388 13.2429,26.45 10.2929,25.57 C7.3439,24.691 24.0469,21.959 26.0939,21.498" id="Fill-136" style="mix-blend-mode: multiply;"></path>
                        <path d="M25.7867,14.6992 C28.7107,14.1082 26.3267,15.5752 25.1337,16.3092 C23.9407,17.0432 18.0917,18.2252 15.8207,17.2062 C13.5497,16.1872 24.4787,14.9632 25.7867,14.6992" id="Fill-138" style="mix-blend-mode: multiply;"></path>
                        <path d="M27.026,17.5014 C31.044,16.6324 27.758,18.6784 26.116,19.7004 C24.473,20.7234 16.438,22.4614 13.33,21.1314 C10.221,19.8004 25.229,17.8904 27.026,17.5014" id="Fill-140" style="mix-blend-mode: multiply;"></path>
                        <path d="M26.3756,9.4184 C28.8056,8.5804 27.4636,10.2774 26.7926,11.1264 C26.1216,11.9754 21.2626,13.6524 18.4176,12.7824 C15.5706,11.9124 25.2896,9.7934 26.3756,9.4184" id="Fill-142" style="mix-blend-mode: multiply;"></path>
                        <path d="M26.8258,5.8871 C28.9678,4.8221 27.6258,6.5201 26.9558,7.3681 C26.2848,8.2181 21.9998,10.3471 19.7268,9.9311 C17.4548,9.5141 25.8678,6.3631 26.8258,5.8871" id="Fill-144" style="mix-blend-mode: multiply;"></path>
                        <path d="M27.0499,0.9697 C28.7539,-0.6743 28.0149,1.3257 27.6459,2.3267 C27.2759,3.3267 23.8669,6.6157 21.5679,6.9037 C19.2669,7.1907 26.2879,1.7047 27.0499,0.9697" id="Fill-146" style="mix-blend-mode: multiply;"></path>
                    </g>
                    <g id="Group-171" transform="translate(411.000000, 18.000000)">
                        <path d="M2.694,35.9726 C1.065,33.3356 1.314,36.0976 1.438,37.4776 C1.562,38.8586 4.82,44.1326 7.706,45.2646 C10.591,46.3966 3.423,37.1526 2.694,35.9726" id="Fill-149" style="mix-blend-mode: multiply;"></path>
                        <path d="M1.9479,29.561 C-0.5741,26.645 0.6429,30.03 1.2519,31.723 C1.8619,33.415 6.9059,39.247 10.1229,40 C13.3409,40.754 3.0759,30.865 1.9479,29.561" id="Fill-151" style="mix-blend-mode: multiply;"></path>
                        <path d="M4.6539,26.019 C2.7169,22.818 3.6609,26.289 4.1329,28.025 C4.6059,29.76 8.4799,36.163 10.9379,37.358 C13.3959,38.553 5.5199,27.451 4.6539,26.019" id="Fill-153" style="mix-blend-mode: multiply;"></path>
                        <path d="M6.9498,22.2119 C4.9508,18.7859 5.9568,22.4819 6.4598,24.3299 C6.9628,26.1779 10.9588,33.0299 13.4478,34.3369 C15.9358,35.6449 7.8438,23.7439 6.9498,22.2119" id="Fill-155" style="mix-blend-mode: multiply;"></path>
                        <path d="M8.5079,17.4692 C6.3929,14.2452 7.1529,17.7612 7.5329,19.5202 C7.9129,21.2782 12.1429,27.7242 15.2329,28.8972 C18.3219,30.0702 9.4539,18.9102 8.5079,17.4692" id="Fill-157" style="mix-blend-mode: multiply;"></path>
                        <path d="M9.65,10.996 C7.455,6.849 8.657,11.266 9.258,13.475 C9.858,15.683 14.248,23.977 16.835,25.646 C19.421,27.314 10.631,12.85 9.65,10.996" id="Fill-159" style="mix-blend-mode: multiply;"></path>
                        <path d="M16.6212,9.0654 C15.1682,6.4594 15.6042,9.2264 15.8232,10.6084 C16.0412,11.9924 18.9472,17.2044 21.1992,18.2664 C23.4502,19.3284 17.2712,10.2314 16.6212,9.0654" id="Fill-161" style="mix-blend-mode: multiply;"></path>
                        <path d="M12.8829,8.8178 C10.9299,5.2008 11.5129,9.0268 11.8039,10.9398 C12.0959,12.8528 16.0029,20.0868 19.0349,21.5818 C22.0669,23.0768 13.7569,10.4358 12.8829,8.8178" id="Fill-163" style="mix-blend-mode: multiply;"></path>
                        <path d="M21.0524,6.3129 C20.1094,3.9219 19.6924,6.0459 19.4844,7.1069 C19.2754,8.1689 21.1624,12.9499 23.6744,14.5459 C26.1864,16.1419 21.4744,7.3819 21.0524,6.3129" id="Fill-165" style="mix-blend-mode: multiply;"></path>
                        <path d="M23.442,3.6743 C22.858,1.3543 22.441,3.4773 22.232,4.5393 C22.024,5.6013 23.193,10.2413 24.988,11.6963 C26.782,13.1513 23.704,4.7123 23.442,3.6743" id="Fill-167" style="mix-blend-mode: multiply;"></path>
                        <path d="M27.8351,1.435 C27.9751,-0.929 26.9361,0.934 26.4171,1.865 C25.8971,2.796 25.6161,7.525 26.8941,9.458 C28.1721,11.393 27.7721,2.492 27.8351,1.435" id="Fill-169" style="mix-blend-mode: multiply;"></path>
                    </g>
                    <path d="M109.485,64.4135 C108.257,63.7115 122.485,67.4135 125.485,67.4135 C128.485,67.4135 133.485,68.4135 131.485,69.4135 C129.485,70.4135 123.485,72.4135 109.485,64.4135" id="Fill-172" style="mix-blend-mode: multiply;"></path>
                    <path d="M125.4445,42.5307 C124.7905,41.0537 128.3225,58.2047 128.3545,61.8277 C128.3865,65.4497 129.3535,71.4797 130.2455,69.0567 C131.1385,66.6337 132.9025,59.3717 125.4445,42.5307" id="Fill-174" style="mix-blend-mode: multiply;"></path>
                    <path d="M127.485,69.4135 C127.485,69.4135 113.485,54.4135 112.485,51.4135 C112.485,51.4135 128.485,63.4135 130.485,65.4135 C132.485,67.4135 127.485,69.4135 127.485,69.4135" id="Fill-176" style="mix-blend-mode: multiply;"></path>
                    <path d="M129.485,65.4135 C129.485,65.4135 134.485,49.4135 137.485,47.4135 C138.485,51.4135 133.485,68.4135 131.485,69.4135 C129.485,70.4135 129.485,65.4135 129.485,65.4135" id="Fill-178" style="mix-blend-mode: multiply;"></path>
                    <path d="M128.8878,62.4946 C128.8878,62.4946 121.4238,46.7696 118.5028,45.1986 C118.4858,49.5026 126.1548,66.2616 128.0338,66.9646 C129.9118,67.6676 128.8878,62.4946 128.8878,62.4946" id="Fill-180" style="mix-blend-mode: multiply;"></path>
                    <path d="M418.6364,153.1215 C418.6474,151.7075 422.3834,165.9265 423.8514,168.5425 C425.3194,171.1595 426.8944,176.0085 425.0434,174.7535 C423.1924,173.4995 418.5114,169.2455 418.6364,153.1215" id="Fill-182" style="mix-blend-mode: multiply;"></path>
                    <path d="M445.5304,156.329 C446.4984,155.036 433.2704,166.511 430.1274,168.311 C426.9834,170.112 422.1984,173.906 424.7484,173.498 C427.2984,173.091 434.4934,171.076 445.5304,156.329" id="Fill-184" style="mix-blend-mode: multiply;"></path>
                    <path d="M423.0856,171.2656 C423.0856,171.2656 429.3146,151.7156 431.4416,149.3756 C431.4416,149.3756 428.8076,169.2016 428.0426,171.9246 C427.2766,174.6466 423.0856,171.2656 423.0856,171.2656" id="Fill-186" style="mix-blend-mode: multiply;"></path>
                    <path d="M427.5529,171.0522 C427.5529,171.0522 443.9529,167.5822 447.1649,169.2192 C444.1659,172.0492 426.8939,176.0092 425.0439,174.7542 C423.1929,173.4992 427.5529,171.0522 427.5529,171.0522" id="Fill-188" style="mix-blend-mode: multiply;"></path>
                    <path d="M429.8058,169.103 C429.8058,169.103 439.8658,154.898 439.8058,151.582 C436.0448,153.673 425.1828,168.563 425.4898,170.545 C425.7958,172.528 429.8058,169.103 429.8058,169.103" id="Fill-190" style="mix-blend-mode: multiply;"></path>
                    <path d="M71.485,229.4135 C71.485,229.4135 57.485,217.4135 55.485,200.4135 C55.485,200.4135 63.485,210.4135 70.485,221.4135 C72.485,226.4135 71.485,229.4135 71.485,229.4135" id="Fill-192" style="mix-blend-mode: multiply;"></path>
                    <path d="M69.485,223.4135 C69.485,223.4135 60.485,205.4135 60.485,194.4135 C64.485,199.4135 72.485,215.4135 73.485,222.4135 C71.485,226.4135 69.485,223.4135 69.485,223.4135" id="Fill-194" style="mix-blend-mode: multiply;"></path>
                    <path d="M68.1471,208.58 C68.1471,208.58 64.5751,195.228 65.4681,191.413 C69.0401,197.136 75.2921,218.117 74.3981,222.886 C73.5051,226.701 68.1471,208.58 68.1471,208.58" id="Fill-196" style="mix-blend-mode: multiply;"></path>
                    <path d="M70.485,221.4135 C70.485,221.4135 72.485,192.4135 73.485,191.4135 C75.485,196.4135 77.935,226.1885 71.485,229.4135 C69.485,230.4135 70.485,221.4135 70.485,221.4135" id="Fill-198" style="mix-blend-mode: multiply;"></path>
                    <path d="M75.4323,226.1386 C75.4323,226.1386 80.1403,205.5286 79.9713,192.9746 C77.8323,198.7106 73.6463,217.0306 73.2013,225.0276 C74.3703,229.5766 75.4323,226.1386 75.4323,226.1386" id="Fill-200" style="mix-blend-mode: multiply;"></path>
                    <path d="M74.485,258.4135 C75.485,259.4135 76.485,259.4135 76.485,257.4135 C76.485,255.4135 74.485,228.4135 74.485,225.4135 C74.485,222.4135 72.663,225.5545 72.074,227.4835 C71.896,229.3435 74.485,258.4135 74.485,258.4135" id="Fill-202" style="mix-blend-mode: multiply;"></path>
                    <path d="M254.0499,87.9506 C254.0499,87.9506 262.1249,91.8346 265.1899,99.5666 C265.1899,99.5666 260.1829,95.8716 255.5199,91.5816 C253.9559,89.4846 254.0499,87.9506 254.0499,87.9506" id="Fill-204" style="mix-blend-mode: multiply;"></path>
                    <path d="M255.7394,90.518 C255.7394,90.518 262.2164,97.844 263.5924,103.009 C261.0894,101.162 255.3314,94.649 253.9864,91.488 C254.4254,89.359 255.7394,90.518 255.7394,90.518" id="Fill-206" style="mix-blend-mode: multiply;"></path>
                    <path d="M258.2228,97.3154 C258.2228,97.3154 261.5708,103.1384 261.6278,105.0414 C259.2348,102.8004 253.6758,93.7314 253.4978,91.3804 C253.4408,89.4774 258.2228,97.3154 258.2228,97.3154" id="Fill-208" style="mix-blend-mode: multiply;"></path>
                    <path d="M255.5201,91.582 C255.5201,91.582 258.2081,105.449 257.8631,106.044 C256.2991,103.946 251.4251,90.272 254.0501,87.951 C254.8641,87.231 255.5201,91.582 255.5201,91.582" id="Fill-210" style="mix-blend-mode: multiply;"></path>
                    <path d="M252.6061,89.9824 C252.6061,89.9824 252.9731,100.2484 254.6231,106.1224 C254.9101,103.1614 254.5841,94.0354 253.7931,90.2254 C252.6751,88.2344 252.6061,89.9824 252.6061,89.9824" id="Fill-212" style="mix-blend-mode: multiply;"></path>
                    <path d="M249.0143,74.7094 C248.4193,74.3644 247.9503,74.4894 248.2003,75.4294 C248.4503,76.3684 252.7663,88.7954 253.1413,90.2044 C253.5163,91.6124 253.9793,89.9104 254.0143,88.9304 C253.8663,88.0354 249.0143,74.7094 249.0143,74.7094" id="Fill-214" style="mix-blend-mode: multiply;"></path>
                    <path d="M338.2501,307.4135 C338.2501,307.4135 326.4851,307.4135 326.4851,305.4135 C326.4851,303.4135 337.1801,304.4135 338.2501,305.4135 C339.3191,306.4135 340.3891,307.4135 338.2501,307.4135" id="Fill-216" style="mix-blend-mode: multiply;"></path>
                    <path d="M339.1515,305.2934 C339.1515,305.2934 344.1715,291.5864 346.0485,292.2744 C347.9275,292.9624 342.4245,305.0794 341.0295,305.9814 C339.6345,306.8834 338.2385,307.7854 339.1515,305.2934" id="Fill-218" style="mix-blend-mode: multiply;"></path>
                    <path d="M337.0582,305.2758 C337.0582,305.2758 329.4852,293.4138 331.4852,292.4138 C333.4852,291.4138 337.4852,299.4138 338.4852,303.4138 C339.4852,307.4138 338.6312,307.1378 337.0582,305.2758" id="Fill-220" style="mix-blend-mode: multiply;"></path>
                    <path d="M327.485,298.4135 C327.485,300.6495 337.754,307.3045 338.119,306.3595 C338.485,305.4135 333.485,300.4135 331.485,299.4135 C329.485,298.4135 327.485,297.4135 327.485,298.4135" id="Fill-222" style="mix-blend-mode: multiply;"></path>
                    <path d="M338.485,303.4135 C338.485,303.4135 336.485,289.4135 339.485,289.4135 C342.485,289.4135 341.485,301.4135 340.485,304.4135 C339.485,307.4135 338.485,307.4135 338.485,303.4135" id="Fill-224" style="mix-blend-mode: multiply;"></path>
                    <path d="M338.7076,305.1474 C338.7076,305.1474 351.6636,300.2424 352.3716,302.1134 C353.0796,303.9834 340.9476,307.5074 339.4156,307.0184 C337.8836,306.5284 336.3526,306.0394 338.7076,305.1474" id="Fill-226" style="mix-blend-mode: multiply;"></path>
                    <path d="M343.1119,305.7822 C343.1119,305.7822 352.3729,296.7662 350.8809,295.4242 C349.3879,294.0822 344.0969,300.4072 342.3129,303.7902 C340.5279,307.1732 341.3269,307.1132 343.1119,305.7822" id="Fill-228" style="mix-blend-mode: multiply;"></path>
                    <path d="M338.485,307.4135 C338.485,307.4135 338.485,308.4135 339.485,308.4135 C340.485,308.4135 340.331,307.4095 339.908,306.9115 C339.485,306.4135 338.485,307.4135 338.485,307.4135" id="Fill-230" style="mix-blend-mode: multiply;"></path>
                </g>
                <g id="Group-235" style="mix-blend-mode: multiply;" transform="translate(433.000000, 309.360000)">
                    <mask id="mask-29" fill="white">
                        <use xlink:href="#path-28"></use>
                    </mask>
                    <g id="Clip-234"></g>
                    <polygon id="Fill-233" fill="url(#linearGradient-12)" mask="url(#mask-29)" points="-497.752 105.293 -271.658 -379.566 273.258 -125.467 47.164 359.392"></polygon>
                </g>
                <g id="Group-246" style="mix-blend-mode: multiply;" transform="translate(98.000000, 305.360000)" fill="#6E9C48">
                    <path d="M0.6364,4.1215 C0.6474,2.7075 4.3834,16.9265 5.8514,19.5425 C7.3194,22.1595 8.8944,27.0085 7.0434,25.7535 C5.1924,24.4995 0.5114,20.2455 0.6364,4.1215" id="Fill-236" style="mix-blend-mode: multiply;"></path>
                    <path d="M27.5304,7.329 C28.4984,6.036 15.2704,17.511 12.1274,19.311 C8.9834,21.112 4.1984,24.906 6.7484,24.498 C9.2984,24.091 16.4934,22.076 27.5304,7.329" id="Fill-238" style="mix-blend-mode: multiply;"></path>
                    <path d="M5.0856,22.2656 C5.0856,22.2656 11.3146,2.7156 13.4416,0.3756 C13.4416,0.3756 10.8076,20.2016 10.0426,22.9246 C9.2766,25.6466 5.0856,22.2656 5.0856,22.2656" id="Fill-240" style="mix-blend-mode: multiply;"></path>
                    <path d="M9.5529,22.0522 C9.5529,22.0522 25.9529,18.5822 29.1649,20.2192 C26.1659,23.0492 8.8939,27.0092 7.0439,25.7542 C5.1929,24.4992 9.5529,22.0522 9.5529,22.0522" id="Fill-242" style="mix-blend-mode: multiply;"></path>
                    <path d="M11.8058,20.103 C11.8058,20.103 21.8658,5.898 21.8058,2.582 C18.0448,4.673 7.1828,19.563 7.4898,21.545 C7.7958,23.528 11.8058,20.103 11.8058,20.103" id="Fill-244" style="mix-blend-mode: multiply;"></path>
                </g>
                <g id="Group-267" style="mix-blend-mode: multiply;" transform="translate(250.000000, 165.360000)" fill="#6E9C48">
                    <path d="M160.485,67.4135 C160.485,67.4135 145.485,64.4135 146.485,77.4135 C147.485,90.4135 170.485,74.4135 160.485,67.4135" id="Fill-247" style="mix-blend-mode: multiply;"></path>
                    <path d="M161.9991,74.1205 C161.9991,74.1205 176.4071,79.1155 177.2281,67.2105 C178.0491,55.3055 153.0901,66.2695 161.9991,74.1205" id="Fill-249" style="mix-blend-mode: multiply;"></path>
                    <path d="M161.2042,66.8427 C161.2042,66.8427 157.4622,52.0597 147.0632,57.9137 C136.6642,63.7687 159.5392,78.5997 161.2042,66.8427" id="Fill-251" style="mix-blend-mode: multiply;"></path>
                    <path d="M162.5621,68.1772 C162.5621,68.1772 174.9201,59.2442 165.6421,51.7402 C156.3631,44.2362 151.0201,70.9692 162.5621,68.1772" id="Fill-253" style="mix-blend-mode: multiply;"></path>
                    <path d="M162.485,74.4135 C162.485,74.4135 167.485,91.4135 167.485,93.4135 C167.485,93.4135 171.485,95.4135 170.485,93.4135 C169.485,91.4135 164.208,72.0975 162.846,72.2555 C161.485,72.4135 162.485,74.4135 162.485,74.4135" id="Fill-255" style="mix-blend-mode: multiply;"></path>
                    <path d="M19.0953,16.4487 C19.0953,16.4487 10.2023,4.0027 2.0423,14.1717 C-6.1177,24.3407 21.6053,28.3937 19.0953,16.4487" id="Fill-257" style="mix-blend-mode: multiply;"></path>
                    <path d="M15.6139,22.3774 C15.6139,22.3774 22.7109,35.8744 31.4509,27.7494 C40.1909,19.6244 14.4819,10.5574 15.6139,22.3774" id="Fill-259" style="mix-blend-mode: multiply;"></path>
                    <path d="M20.0104,16.5239 C20.0104,16.5239 27.3894,3.1789 15.7984,0.3389 C4.2074,-2.5001 10.7554,23.9639 20.0104,16.5239" id="Fill-261" style="mix-blend-mode: multiply;"></path>
                    <path d="M20.089,18.4262 C20.089,18.4262 35.214,20.3592 33.576,8.5382 C31.938,-3.2818 9.758,12.5702 20.089,18.4262" id="Fill-263" style="mix-blend-mode: multiply;"></path>
                    <path d="M15.7682,22.9238 C15.7682,22.9238 7.7912,38.7468 6.4232,40.2058 C6.4232,40.2058 7.9752,44.4008 8.6122,42.2578 C9.2502,40.1138 18.6082,22.4118 17.5072,21.5958 C16.4062,20.7808 15.7682,22.9238 15.7682,22.9238" id="Fill-265" style="mix-blend-mode: multiply;"></path>
                </g>
            </g>
        </g>
    </g>
</svg>