<?xml version="1.0" encoding="UTF-8"?>
<svg width="725px" height="617px" viewBox="0 0 725 617" version="1.1" xmlns="http://www.w3.org/2000/svg" xmlns:xlink="http://www.w3.org/1999/xlink">
    <!-- Generator: Sketch 41.2 (35397) - http://www.bohemiancoding.com/sketch -->
    <title>Artboard</title>
    <desc>Created with Sketch.</desc>
    <defs></defs>
    <g id="Design" stroke="none" stroke-width="1" fill="none" fill-rule="evenodd">
        <g id="Artboard">
            <path d="M193.083353,56.0406233 C165.116353,54.6766233 166.083353,88.0406233 170.083353,99.0406233 C174.083353,110.040623 189.083353,126.040623 204.083353,126.040623 C219.083353,126.040623 233.083353,118.040623 245.083353,118.040623 C257.083353,118.040623 272.083353,117.040623 273.083353,110.040623 C274.083353,103.040623 267.083353,94.0406233 247.083353,91.0406233 C227.083353,88.0406233 234.083353,58.0406233 193.083353,56.0406233" id="Fill-3" fill="#FF4141" style="mix-blend-mode: multiply;"></path>
            <path d="M72.8121396,434.230364 C76.8121396,445.230364 91.8121396,461.230364 106.81214,461.230364 C121.81214,461.230364 125.506154,450.625242 137.506154,450.625242 C149.506154,450.625242 164.506154,449.625242 165.506154,442.625242 C166.506154,435.625242 159.506154,426.625242 139.506154,423.625242 C119.506154,420.625242 136.81214,393.230364 95.8121396,391.230364 C67.8451396,389.866364 68.8121396,423.230364 72.8121396,434.230364 Z" id="Fill-3" fill="#FF4141" style="mix-blend-mode: multiply;" transform="translate(118.163752, 426.210052) rotate(207.000000) translate(-118.163752, -426.210052) "></path>
            <path d="M577.156142,294.758661 C581.156142,305.758661 596.156142,321.758661 611.156142,321.758661 C626.156142,321.758661 629.850156,311.15354 641.850156,311.15354 C653.850156,311.15354 668.850156,310.15354 669.850156,303.15354 C670.850156,296.15354 663.850156,287.15354 643.850156,284.15354 C623.850156,281.15354 641.156142,253.758661 600.156142,251.758661 C572.189142,250.394661 573.156142,283.758661 577.156142,294.758661 Z" id="Fill-3" fill="#FF4141" style="mix-blend-mode: multiply;" transform="translate(622.507755, 286.738350) rotate(207.000000) translate(-622.507755, -286.738350) "></path>
            <path d="M387,135.085904 C351.278,139.550904 350,163.085904 350,172.085904 C350,181.085904 365,195.085904 380,193.085904 C395,191.085904 414,182.085904 424,182.085904 C434,182.085904 482,183.085904 483,164.085904 C484,145.085904 457,144.085904 447,144.085904 C437,144.085904 441,148.085904 417,145.085904 C393,142.085904 395,134.085904 387,135.085904" id="Fill-5" fill="#709E49" style="mix-blend-mode: multiply;"></path>
            <path d="M49.5224952,48.431454 C34.4334952,45.916454 20.5224952,38.431454 13.5224952,51.431454 C6.52249525,64.431454 10.5224952,80.431454 20.5224952,88.431454 C30.5224952,96.431454 44.5224952,101.431454 49.5224952,101.431454 C54.5224952,101.431454 81.5224952,90.431454 82.5224952,70.431454 C83.5224952,50.431454 69.5224952,48.431454 63.5224952,48.431454 C57.5224952,48.431454 55.5224952,49.431454 49.5224952,48.431454" id="Fill-1" fill="#709E49" style="mix-blend-mode: multiply;"></path>
            <path d="M623.522495,481.431454 C608.433495,478.916454 594.522495,471.431454 587.522495,484.431454 C580.522495,497.431454 584.522495,513.431454 594.522495,521.431454 C604.522495,529.431454 618.522495,534.431454 623.522495,534.431454 C628.522495,534.431454 655.522495,523.431454 656.522495,503.431454 C657.522495,483.431454 643.522495,481.431454 637.522495,481.431454 C631.522495,481.431454 629.522495,482.431454 623.522495,481.431454" id="Fill-1" fill="#709E49" style="mix-blend-mode: multiply;"></path>
            <path d="M326.522495,291.431454 C311.433495,288.916454 297.522495,281.431454 290.522495,294.431454 C283.522495,307.431454 287.522495,323.431454 297.522495,331.431454 C307.522495,339.431454 321.522495,344.431454 326.522495,344.431454 C331.522495,344.431454 358.522495,333.431454 359.522495,313.431454 C360.522495,293.431454 346.522495,291.431454 340.522495,291.431454 C334.522495,291.431454 332.522495,292.431454 326.522495,291.431454" id="Fill-1" fill="#709E49" style="mix-blend-mode: multiply;"></path>
            <path d="M223.035318,493.027988 C222.200318,483.011988 236.035318,474.027988 279.035318,482.027988 C300.035318,481.027988 321.035318,476.027988 323.035318,502.027988 C319.035318,514.027988 315.035318,532.027988 293.035318,532.027988 C279.035318,528.027988 269.035318,518.027988 258.035318,516.027988 C248.035318,513.027988 224.035318,505.027988 223.035318,493.027988" id="Fill-5" fill="#6FB4D3" style="mix-blend-mode: multiply;"></path>
            <path d="M172.036395,191.724655 C136.683395,184.925655 117.036395,227.724655 118.036395,246.724655 C119.036395,265.724655 117.036395,282.724655 128.036395,295.724655 C139.036395,308.724655 154.036395,315.724655 169.036395,315.724655 C184.036395,315.724655 209.036395,295.724655 211.036395,276.724655 C213.036395,257.724655 191.036395,253.724655 191.036395,236.724655 C191.036395,219.724655 198.036395,196.724655 172.036395,191.724655" id="Fill-1" fill="#6FB4D3" style="mix-blend-mode: multiply;"></path>
            <path d="M490.480973,249.724655 C455.127973,242.925655 435.480973,285.724655 436.480973,304.724655 C437.480973,323.724655 435.480973,340.724655 446.480973,353.724655 C457.480973,366.724655 472.480973,373.724655 487.480973,373.724655 C502.480973,373.724655 527.480973,353.724655 529.480973,334.724655 C531.480973,315.724655 509.480973,311.724655 509.480973,294.724655 C509.480973,277.724655 516.480973,254.724655 490.480973,249.724655" id="Fill-1" fill="#6FB4D3" style="mix-blend-mode: multiply;"></path>
            <path d="M384.443796,443.968713 C356.476796,442.604713 357.443796,475.968713 361.443796,486.968713 C365.443796,497.968713 380.443796,513.968713 395.443796,513.968713 C410.443796,513.968713 424.443796,505.968713 436.443796,505.968713 C448.443796,505.968713 463.443796,504.968713 464.443796,497.968713 C465.443796,490.968713 458.443796,481.968713 438.443796,478.968713 C418.443796,475.968713 425.443796,445.968713 384.443796,443.968713" id="Fill-3" fill="#FF4141" style="mix-blend-mode: multiply;" transform="translate(411.948402, 478.948402) scale(-1, 1) rotate(45.000000) translate(-411.948402, -478.948402) "></path>
            <path d="M602.731191,95.8939668 C593.035266,87.0349668 582.442969,74.3979668 591.35662,61.6459668 C600.26863,48.8939668 624.894243,60.8939668 628.998511,66.8939668 C633.10278,72.8939668 644.594733,101.893967 647.878148,103.893967 C651.161563,105.893967 662.653516,135.893967 653.624125,150.893967 C644.594733,165.893967 631.461073,166.893967 624.073389,157.893967 C616.685705,148.893967 610.118875,137.893967 610.118875,117.893967 C610.118875,97.8939668 606.014606,98.8939668 602.731191,95.8939668" id="Fill-3" fill="#6FB4D3" style="mix-blend-mode: multiply;"></path>
        </g>
    </g>
</svg>