<?xml version="1.0" encoding="UTF-8"?>
<svg width="37px" height="32px" viewBox="0 0 37 32" version="1.1" xmlns="http://www.w3.org/2000/svg" xmlns:xlink="http://www.w3.org/1999/xlink">
    <!-- Generator: Sketch 41.2 (35397) - http://www.bohemiancoding.com/sketch -->
    <title>Twitter</title>
    <desc>Created with Sketch.</desc>
    <defs></defs>
    <g id="Page-1" stroke="none" stroke-width="1" fill="none" fill-rule="evenodd">
        <g id="Artboard-Copy" transform="translate(0.000000, -3.000000)" fill="#000000">
            <path d="M36.42,3.577 C34.934,4.479 33.292,5.135 31.537,5.486 C30.139,3.956 28.141,3 25.929,3 C21.689,3 18.248,6.528 18.248,10.879 C18.248,11.497 18.314,12.096 18.446,12.673 C12.06,12.344 6.399,9.211 2.607,4.438 C1.945,5.606 1.567,6.961 1.567,8.404 C1.567,11.136 2.923,13.548 4.986,14.961 C3.728,14.923 2.541,14.565 1.503,13.979 L1.503,14.075 C1.503,17.894 4.152,21.08 7.67,21.801 C7.026,21.986 6.346,22.079 5.645,22.079 C5.15,22.079 4.667,22.031 4.199,21.939 C5.177,25.068 8.013,27.347 11.376,27.408 C8.747,29.522 5.432,30.782 1.833,30.782 C1.213,30.782 0.6,30.746 0,30.674 C3.4,32.906 7.441,34.211 11.779,34.211 C25.914,34.211 33.641,22.207 33.641,11.794 C33.641,11.451 33.635,11.109 33.622,10.773 C35.123,9.662 36.427,8.275 37.453,6.695 C36.077,7.321 34.595,7.745 33.041,7.935 C34.628,6.961 35.846,5.417 36.42,3.577" id="Twitter"></path>
        </g>
    </g>
</svg>