<?xml version="1.0" encoding="UTF-8"?>
<svg width="37px" height="32px" viewBox="0 0 37 32" version="1.1" xmlns="http://www.w3.org/2000/svg" xmlns:xlink="http://www.w3.org/1999/xlink">
    <!-- Generator: Sketch 41.2 (35397) - http://www.bohemiancoding.com/sketch -->
    <title>Vimeo</title>
    <desc>Created with Sketch.</desc>
    <defs></defs>
    <g id="Page-1" stroke="none" stroke-width="1" fill="none" fill-rule="evenodd">
        <g id="Artboard-Copy-3" transform="translate(0.000000, -3.000000)" fill="#000000">
            <path d="M31.302,3.00676012 C26.207,2.84276012 22.759,5.66276012 20.948,11.4637601 C21.877,11.0797601 22.782,10.8957601 23.66,10.8957601 C25.522,10.8957601 26.343,11.9197601 26.123,13.9807601 C26.011,15.2307601 25.194,17.0437601 23.66,19.4317601 C22.125,21.8147601 20.974,23.0047601 20.209,23.0047601 C19.222,23.0047601 18.321,21.1657601 17.498,17.4797601 C17.224,16.3957601 16.728,13.6307601 16.024,9.18276012 C15.362,5.06376012 13.608,3.13676012 10.763,3.40976012 C9.556,3.52276012 7.748,4.60476012 5.342,6.66576012 C3.586,8.23576012 1.806,9.80976012 0,11.3777601 L1.724,13.5777601 C3.37,12.4357601 4.325,11.8667601 4.599,11.8667601 C5.857,11.8667601 7.034,13.8187601 8.133,17.7247601 C9.12,21.2957601 10.103,24.8777601 11.093,28.4597601 C12.569,32.3637601 14.377,34.3097601 16.511,34.3097601 C19.961,34.3097601 24.183,31.1117601 29.166,24.7117601 C33.981,18.5907601 36.477,13.7677601 36.636,10.2387601 C36.858,5.52676012 35.076,3.11076012 31.302,3.00676012" id="Vimeo"></path>
        </g>
    </g>
</svg>